<?xml version="1.0" encoding="UTF-8" standalone="no"?>
<!DOCTYPE svg PUBLIC "-//W3C//DTD SVG 1.1//EN"
 "http://www.w3.org/Graphics/SVG/1.1/DTD/svg11.dtd">
<!-- Generated by graphviz version 2.43.0 (0)
 -->
<!-- Title: ROS2TopicFlowCompact Pages: 1 -->
<svg width="3972pt" height="2397pt"
 viewBox="0.00 0.00 1300.06 784.56" xmlns="http://www.w3.org/2000/svg" xmlns:xlink="http://www.w3.org/1999/xlink">
<g id="graph0" class="graph" transform="scale(3.06 3.06) rotate(0) translate(17.28 767.28)">
<title>ROS2TopicFlowCompact</title>
<polygon fill="white" stroke="transparent" points="-17.28,17.28 -17.28,-767.28 1282.78,-767.28 1282.78,17.28 -17.28,17.28"/>
<text text-anchor="start" x="393.75" y="-722.6" font-family="DejaVu Sans" font-weight="bold" font-size="28.00">ROS2 Node Graph / Topic Flow</text>
<text text-anchor="start" x="401.75" y="-697" font-family="DejaVu Sans" font-size="15.00" fill="#64748b">Simplified backbone of the survey and harvest runtime graph</text>
<!-- sim -->
<g id="node1" class="node">
<title>sim</title>
<polygon fill="#0284c7" stroke="transparent" points="28,-646 28,-686 733,-686 733,-646 28,-646"/>
<polygon fill="none" stroke="#7dd3fc" points="28,-646 28,-686 733,-686 733,-646 28,-646"/>
<text text-anchor="start" x="258.5" y="-662.6" font-family="DejaVu Sans" font-weight="bold" font-size="18.00" fill="white">Gazebo and Robot Layer</text>
<polygon fill="#eff8ff" stroke="transparent" points="28,-596 28,-646 733,-646 733,-596 28,-596"/>
<polygon fill="none" stroke="#7dd3fc" points="28,-596 28,-646 733,-646 733,-596 28,-596"/>
<text text-anchor="start" x="38" y="-625" font-family="DejaVu Sans" font-size="15.00"> &#160;&#160;&#160;&#160;&#160;&#160;&#160;</text>
<text text-anchor="start" x="75" y="-625" font-family="DejaVu Sans" font-weight="bold" font-size="15.00">Nodes/modules:</text>
<text text-anchor="start" x="212" y="-625" font-family="DejaVu Sans" font-size="15.00"> Gazebo Harmonic, ros2_control, robot_state_publisher</text>
<text text-anchor="start" x="38" y="-610" font-family="DejaVu Sans" font-size="15.00"> &#160;&#160;&#160;&#160;&#160;&#160;&#160;</text>
<text text-anchor="start" x="75" y="-610" font-family="DejaVu Sans" font-weight="bold" font-size="15.00">Published data:</text>
<text text-anchor="start" x="208" y="-610" font-family="DejaVu Sans" font-size="15.00"> RGB image, depth image, CameraInfo, scan, IMU, joint states, TF &#160;&#160;&#160;&#160;&#160;</text>
</g>
<!-- bridge -->
<g id="node2" class="node">
<title>bridge</title>
<polygon fill="#16a34a" stroke="transparent" points="0,-515 0,-555 760,-555 760,-515 0,-515"/>
<polygon fill="none" stroke="#86efac" points="0,-515 0,-555 760,-555 760,-515 0,-515"/>
<text text-anchor="start" x="270.5" y="-531.6" font-family="DejaVu Sans" font-weight="bold" font-size="18.00" fill="white">ROS2 Interface Topics</text>
<polygon fill="#f0fdf4" stroke="transparent" points="0,-465 0,-515 760,-515 760,-465 0,-465"/>
<polygon fill="none" stroke="#86efac" points="0,-465 0,-515 760,-515 760,-465 0,-465"/>
<text text-anchor="start" x="10" y="-494" font-family="DejaVu Sans" font-size="15.00"> &#160;&#160;&#160;&#160;&#160;&#160;&#160;</text>
<text text-anchor="start" x="47" y="-494" font-family="DejaVu Sans" font-weight="bold" font-size="15.00">Sensor topics:</text>
<text text-anchor="start" x="169" y="-494" font-family="DejaVu Sans" font-size="15.00"> /camera/color/image_raw, /camera/depth/image, /camera/depth/camera_info</text>
<text text-anchor="start" x="86" y="-479" font-family="DejaVu Sans" font-size="15.00"> &#160;&#160;&#160;&#160;&#160;&#160;&#160;</text>
<text text-anchor="start" x="123" y="-479" font-family="DejaVu Sans" font-weight="bold" font-size="15.00">State topics:</text>
<text text-anchor="start" x="232" y="-479" font-family="DejaVu Sans" font-size="15.00"> /scan, /imu/data_raw, /joint_states, /tf, /tf_static, /clock &#160;&#160;&#160;&#160;&#160;</text>
</g>
<!-- sim&#45;&gt;bridge -->
<g id="edge1" class="edge">
<title>sim&#45;&gt;bridge</title>
<path fill="none" stroke="#0284c7" stroke-width="2" d="M380,-595.97C380,-585.29 380,-573.78 380,-562.79"/>
<polygon fill="#0284c7" stroke="#0284c7" stroke-width="2" points="382.52,-562.47 380,-555.27 377.48,-562.47 382.52,-562.47"/>
<text text-anchor="middle" x="469" y="-572.4" font-family="DejaVu Sans" font-size="12.00">ros_gz_bridge and robot state</text>
</g>
<!-- nav -->
<g id="node3" class="node">
<title>nav</title>
<polygon fill="#ea580c" stroke="transparent" points="32,-253 32,-293 842,-293 842,-253 32,-253"/>
<polygon fill="none" stroke="#fdba74" points="32,-253 32,-293 842,-293 842,-253 32,-253"/>
<text text-anchor="start" x="280" y="-269.6" font-family="DejaVu Sans" font-weight="bold" font-size="18.00" fill="white">Navigation and Mission Control</text>
<polygon fill="#fff7ed" stroke="transparent" points="32,-203 32,-253 842,-253 842,-203 32,-203"/>
<polygon fill="none" stroke="#fdba74" points="32,-203 32,-253 842,-253 842,-203 32,-203"/>
<text text-anchor="start" x="42" y="-232" font-family="DejaVu Sans" font-size="15.00"> &#160;&#160;&#160;&#160;&#160;&#160;&#160;</text>
<text text-anchor="start" x="79" y="-232" font-family="DejaVu Sans" font-weight="bold" font-size="15.00">Nodes:</text>
<text text-anchor="start" x="139" y="-232" font-family="DejaVu Sans" font-size="15.00"> robot_localization EKF, AMCL, Nav2, initial_pose_publisher, mission_manager</text>
<text text-anchor="start" x="42" y="-217" font-family="DejaVu Sans" font-size="15.00"> &#160;&#160;&#160;&#160;&#160;&#160;&#160;</text>
<text text-anchor="start" x="79" y="-217" font-family="DejaVu Sans" font-weight="bold" font-size="15.00">Topics/actions:</text>
<text text-anchor="start" x="205" y="-217" font-family="DejaVu Sans" font-size="15.00"> /initialpose, /amcl_pose, /navigate_to_pose, /cmd_vel, /mission_manager/status &#160;&#160;&#160;&#160;&#160;</text>
</g>
<!-- bridge&#45;&gt;nav -->
<g id="edge2" class="edge">
<title>bridge&#45;&gt;nav</title>
<path fill="none" stroke="#ea580c" stroke-width="2" d="M373.09,-464.7C367.65,-429.1 361,-385.5 361,-385.5 361,-385.5 386.87,-338.7 408.42,-299.7"/>
<polygon fill="#ea580c" stroke="#ea580c" stroke-width="2" points="410.84,-300.54 412.11,-293.02 406.43,-298.11 410.84,-300.54"/>
<text text-anchor="middle" x="422.5" y="-375.9" font-family="DejaVu Sans" font-size="12.00">scan, IMU, odom, TF</text>
</g>
<!-- perception -->
<g id="node4" class="node">
<title>perception</title>
<polygon fill="#db2777" stroke="transparent" points="507,-384 507,-424 1266,-424 1266,-384 507,-384"/>
<polygon fill="none" stroke="#f9a8d4" points="507,-384 507,-424 1266,-424 1266,-384 507,-384"/>
<text text-anchor="start" x="746.5" y="-400.6" font-family="DejaVu Sans" font-weight="bold" font-size="18.00" fill="white">Perception and Tomato Map</text>
<polygon fill="#fdf2f8" stroke="transparent" points="507,-334 507,-384 1266,-384 1266,-334 507,-334"/>
<polygon fill="none" stroke="#f9a8d4" points="507,-334 507,-384 1266,-384 1266,-334 507,-334"/>
<text text-anchor="start" x="517" y="-363" font-family="DejaVu Sans" font-size="15.00"> &#160;&#160;&#160;&#160;&#160;&#160;&#160;</text>
<text text-anchor="start" x="554" y="-363" font-family="DejaVu Sans" font-weight="bold" font-size="15.00">Nodes:</text>
<text text-anchor="start" x="614" y="-363" font-family="DejaVu Sans" font-size="15.00"> yolo_tomato_detector, tomato_depth_mapper, yolo_bbox_viewer, tomato_map_panel</text>
<text text-anchor="start" x="644.5" y="-348" font-family="DejaVu Sans" font-size="15.00"> &#160;&#160;&#160;&#160;&#160;&#160;&#160;</text>
<text text-anchor="start" x="681.5" y="-348" font-family="DejaVu Sans" font-weight="bold" font-size="15.00">Topics:</text>
<text text-anchor="start" x="740.5" y="-348" font-family="DejaVu Sans" font-size="15.00"> /yolo/tomato_detections_json, /tomato_map/list &#160;&#160;&#160;&#160;&#160;</text>
</g>
<!-- bridge&#45;&gt;perception -->
<g id="edge3" class="edge">
<title>bridge&#45;&gt;perception</title>
<path fill="none" stroke="#db2777" stroke-width="2" d="M552.72,-464.97C602.21,-452.35 656.28,-438.57 706.19,-425.84"/>
<polygon fill="#db2777" stroke="#db2777" stroke-width="2" points="706.84,-428.27 713.2,-424.05 705.6,-423.39 706.84,-428.27"/>
<text text-anchor="middle" x="642" y="-441.4" font-family="DejaVu Sans" font-size="12.00">RGB&#45;D + CameraInfo + TF</text>
</g>
<!-- harvest -->
<g id="node5" class="node">
<title>harvest</title>
<polygon fill="#7c3aed" stroke="transparent" points="275,-121.5 275,-161.5 1050,-161.5 1050,-121.5 275,-121.5"/>
<polygon fill="none" stroke="#c4b5fd" points="275,-121.5 275,-161.5 1050,-161.5 1050,-121.5 275,-121.5"/>
<text text-anchor="start" x="485" y="-138.1" font-family="DejaVu Sans" font-weight="bold" font-size="18.00" fill="white">Harvest Planning and Manipulation</text>
<polygon fill="#f5f3ff" stroke="transparent" points="275,-56.5 275,-121.5 1050,-121.5 1050,-56.5 275,-56.5"/>
<polygon fill="none" stroke="#c4b5fd" points="275,-56.5 275,-121.5 1050,-121.5 1050,-56.5 275,-56.5"/>
<text text-anchor="start" x="285" y="-100.5" font-family="DejaVu Sans" font-size="15.00"> &#160;&#160;&#160;&#160;&#160;&#160;&#160;</text>
<text text-anchor="start" x="322" y="-100.5" font-family="DejaVu Sans" font-weight="bold" font-size="15.00">Nodes:</text>
<text text-anchor="start" x="382" y="-100.5" font-family="DejaVu Sans" font-size="15.00"> tomato_collision_scene_manager, MoveIt move_group, greenhouse_nearest_pick_place</text>
<text text-anchor="start" x="285" y="-85.5" font-family="DejaVu Sans" font-size="15.00"> &#160;&#160;&#160;&#160;&#160;&#160;&#160;</text>
<text text-anchor="start" x="322" y="-85.5" font-family="DejaVu Sans" font-weight="bold" font-size="15.00">Topics/actions:</text>
<text text-anchor="start" x="448" y="-85.5" font-family="DejaVu Sans" font-size="15.00"> /mission_pick/tomato_center, /mission_pick/tomato_radius,</text>
<text text-anchor="start" x="293" y="-70.5" font-family="DejaVu Sans" font-size="15.00"> &#160;&#160;&#160;&#160;&#160;&#160;&#160;/tomato_harvest/target_selection, /planning_scene, /move_action, /tomato_harvest/picked &#160;&#160;&#160;&#160;&#160;</text>
</g>
<!-- nav&#45;&gt;harvest -->
<g id="edge5" class="edge">
<title>nav&#45;&gt;harvest</title>
<path fill="none" stroke="#7c3aed" stroke-width="2" d="M509.74,-202.87C529.17,-191.08 550.42,-178.19 570.71,-165.88"/>
<polygon fill="#7c3aed" stroke="#7c3aed" stroke-width="2" points="572.13,-167.97 576.98,-162.08 569.51,-163.66 572.13,-167.97"/>
<text text-anchor="middle" x="647.5" y="-179.4" font-family="DejaVu Sans" font-size="12.00">selected target + mission trigger</text>
</g>
<!-- perception&#45;&gt;nav -->
<g id="edge4" class="edge">
<title>perception&#45;&gt;nav</title>
<path fill="none" stroke="#7c3aed" stroke-width="2" d="M732.74,-333.97C689.09,-321.43 641.43,-307.73 597.37,-295.08"/>
<polygon fill="#7c3aed" stroke="#7c3aed" stroke-width="2" points="597.95,-292.62 590.34,-293.05 596.56,-297.46 597.95,-292.62"/>
<text text-anchor="middle" x="752" y="-310.4" font-family="DejaVu Sans" font-size="12.00">/tomato_map/list and waypoint context</text>
</g>
<!-- perception&#45;&gt;harvest -->
<g id="edge6" class="edge">
<title>perception&#45;&gt;harvest</title>
<path fill="none" stroke="#7c3aed" stroke-width="2" d="M886,-333.7C886,-298.1 886,-254.5 886,-254.5 886,-254.5 812.13,-206.68 749.24,-165.97"/>
<polygon fill="#7c3aed" stroke="#7c3aed" stroke-width="2" points="750.6,-163.85 743.19,-162.05 747.86,-168.08 750.6,-163.85"/>
<text text-anchor="middle" x="987.5" y="-244.9" font-family="DejaVu Sans" font-size="12.00">tomato records + collision objects</text>
</g>
<!-- command -->
<g id="node6" class="node">
<title>command</title>
<polygon fill="#f8fafc" stroke="transparent" points="74,0 74,-28 1250,-28 1250,0 74,0"/>
<text text-anchor="start" x="81" y="-10.6" font-family="DejaVu Sans" font-size="13.00" fill="#475569"> &#160;&#160;&#160;&#160;&#160;&#160;&#160;Feedback path: Nav2 and pick&#45;place nodes send base, arm, and gripper commands through ros2_control; picked events update the tomato map and collision scene. &#160;&#160;&#160;&#160;&#160;</text>
</g>
<!-- harvest&#45;&gt;command -->
<g id="edge7" class="edge">
<title>harvest&#45;&gt;command</title>
<path fill="none" stroke="#64748b" stroke-width="2" stroke-dasharray="5,2" d="M662,-56.83C662,-46.18 662,-35.89 662,-28.17"/>
</g>
<!-- command&#45;&gt;sim -->
<g id="edge8" class="edge">
<title>command&#45;&gt;sim</title>
<path fill="none" stroke="#334155" stroke-width="2" d="M678.97,-28.35C750.54,-88.85 1024,-320 1024,-320 1024,-320 657.07,-502.9 477.15,-592.58"/>
<polygon fill="#334155" stroke="#334155" stroke-width="2" points="475.88,-590.39 470.56,-595.86 478.13,-594.9 475.88,-590.39"/>
<text text-anchor="middle" x="1137" y="-310.4" font-family="DejaVu Sans" font-size="12.00">controllers and Gazebo attach/detach</text>
</g>
</g>
</svg>
