<?xml version="1.0" encoding="UTF-8" standalone="no"?>
<!DOCTYPE svg PUBLIC "-//W3C//DTD SVG 1.1//EN"
 "http://www.w3.org/Graphics/SVG/1.1/DTD/svg11.dtd">
<!-- Generated by graphviz version 2.43.0 (0)
 -->
<!-- Title: SystemArchitectureCompact Pages: 1 -->
<svg width="2903pt" height="2371pt"
 viewBox="0.00 0.00 950.00 776.00" xmlns="http://www.w3.org/2000/svg" xmlns:xlink="http://www.w3.org/1999/xlink">
<g id="graph0" class="graph" transform="scale(3.06 3.06) rotate(0) translate(18 758)">
<title>SystemArchitectureCompact</title>
<polygon fill="white" stroke="transparent" points="-18,18 -18,-758 932,-758 932,18 -18,18"/>
<text text-anchor="start" x="235" y="-712.6" font-family="DejaVu Sans" font-weight="bold" font-size="28.00">Overall System Architecture</text>
<text text-anchor="start" x="299.5" y="-687" font-family="DejaVu Sans" font-size="15.00" fill="#64748b">Five&#45;layer greenhouse harvesting pipeline</text>
<!-- layer1 -->
<g id="node1" class="node">
<title>layer1</title>
<polygon fill="#0284c7" stroke="transparent" points="202,-634 202,-676 659,-676 659,-634 202,-634"/>
<polygon fill="none" stroke="#7dd3fc" points="202,-634 202,-676 659,-676 659,-634 202,-634"/>
<text text-anchor="start" x="229" y="-651.6" font-family="DejaVu Sans" font-weight="bold" font-size="18.00" fill="white">Layer 1 &#45; Simulation and Robot Platform</text>
<polygon fill="#eff8ff" stroke="transparent" points="202,-548 202,-634 659,-634 659,-548 202,-548"/>
<polygon fill="none" stroke="#7dd3fc" points="202,-548 202,-634 659,-634 659,-548 202,-548"/>
<text text-anchor="start" x="213" y="-611.2" font-family="DejaVu Sans" font-size="16.00"> &#160;&#160;&#160;&#160;&#160;&#160;&#160;</text>
<text text-anchor="start" x="256" y="-611.2" font-family="DejaVu Sans" font-weight="bold" font-size="16.00">Role:</text>
<text text-anchor="start" x="302" y="-611.2" font-family="DejaVu Sans" font-size="16.00"> Gazebo greenhouse world, robot body,</text>
<text text-anchor="start" x="213" y="-595.2" font-family="DejaVu Sans" font-size="16.00"> &#160;&#160;&#160;&#160;&#160;&#160;&#160;crops, baskets, and sensor models</text>
<text text-anchor="start" x="213" y="-579.2" font-family="DejaVu Sans" font-size="16.00"> &#160;&#160;&#160;&#160;&#160;&#160;&#160;</text>
<text text-anchor="start" x="256" y="-579.2" font-family="DejaVu Sans" font-weight="bold" font-size="16.00">Main elements:</text>
<text text-anchor="start" x="393" y="-579.2" font-family="DejaVu Sans" font-size="16.00"> Panther base, Franka FR3 arm,</text>
<text text-anchor="start" x="213" y="-563.2" font-family="DejaVu Sans" font-size="16.00"> &#160;&#160;&#160;&#160;&#160;&#160;&#160;RGB&#45;D camera, LiDAR, IMU, B/C tomato rows &#160;&#160;&#160;&#160;&#160;</text>
</g>
<!-- layer2 -->
<g id="node2" class="node">
<title>layer2</title>
<polygon fill="#16a34a" stroke="transparent" points="213,-469 213,-511 647,-511 647,-469 213,-469"/>
<polygon fill="none" stroke="#86efac" points="213,-469 213,-511 647,-511 647,-469 213,-469"/>
<text text-anchor="start" x="224" y="-486.6" font-family="DejaVu Sans" font-weight="bold" font-size="18.00" fill="white">Layer 2 &#45; ROS2 Interface and Robot State</text>
<polygon fill="#f0fdf4" stroke="transparent" points="213,-383 213,-469 647,-469 647,-383 213,-383"/>
<polygon fill="none" stroke="#86efac" points="213,-383 213,-469 647,-469 647,-383 213,-383"/>
<text text-anchor="start" x="227" y="-446.2" font-family="DejaVu Sans" font-size="16.00"> &#160;&#160;&#160;&#160;&#160;&#160;&#160;</text>
<text text-anchor="start" x="270" y="-446.2" font-family="DejaVu Sans" font-weight="bold" font-size="16.00">Role:</text>
<text text-anchor="start" x="316" y="-446.2" font-family="DejaVu Sans" font-size="16.00"> Bridge simulation data into ROS2</text>
<text text-anchor="start" x="227" y="-430.2" font-family="DejaVu Sans" font-size="16.00"> &#160;&#160;&#160;&#160;&#160;&#160;&#160;and expose robot commands/state</text>
<text text-anchor="start" x="227" y="-414.2" font-family="DejaVu Sans" font-size="16.00"> &#160;&#160;&#160;&#160;&#160;&#160;&#160;</text>
<text text-anchor="start" x="270" y="-414.2" font-family="DejaVu Sans" font-weight="bold" font-size="16.00">Main modules:</text>
<text text-anchor="start" x="401" y="-414.2" font-family="DejaVu Sans" font-size="16.00"> ros_gz_bridge, ros2_control,</text>
<text text-anchor="start" x="267.5" y="-398.2" font-family="DejaVu Sans" font-size="16.00"> &#160;&#160;&#160;&#160;&#160;&#160;&#160;robot_state_publisher, TF2 tree &#160;&#160;&#160;&#160;&#160;</text>
</g>
<!-- layer1&#45;&gt;layer2 -->
<g id="edge1" class="edge">
<title>layer1&#45;&gt;layer2</title>
<path fill="none" stroke="#0284c7" stroke-width="2" d="M430,-547.98C430,-538.34 430,-528.34 430,-518.55"/>
<polygon fill="#0284c7" stroke="#0284c7" stroke-width="2" points="432.52,-518.32 430,-511.12 427.48,-518.32 432.52,-518.32"/>
<text text-anchor="middle" x="476.5" y="-526.4" font-family="DejaVu Sans" font-size="12.00">simulation data</text>
</g>
<!-- layer3 -->
<g id="node3" class="node">
<title>layer3</title>
<polygon fill="#ea580c" stroke="transparent" points="0,-304 0,-346 394,-346 394,-304 0,-304"/>
<polygon fill="none" stroke="#fdba74" points="0,-304 0,-346 394,-346 394,-304 0,-304"/>
<text text-anchor="start" x="11" y="-321.6" font-family="DejaVu Sans" font-weight="bold" font-size="18.00" fill="white">Layer 3 &#45; Navigation and Localization</text>
<polygon fill="#fff7ed" stroke="transparent" points="0,-218 0,-304 394,-304 394,-218 0,-218"/>
<polygon fill="none" stroke="#fdba74" points="0,-218 0,-304 394,-304 394,-218 0,-218"/>
<text text-anchor="start" x="22" y="-281.2" font-family="DejaVu Sans" font-size="16.00"> &#160;&#160;&#160;&#160;&#160;&#160;&#160;</text>
<text text-anchor="start" x="65" y="-281.2" font-family="DejaVu Sans" font-weight="bold" font-size="16.00">Role:</text>
<text text-anchor="start" x="111" y="-281.2" font-family="DejaVu Sans" font-size="16.00"> Localize the base on the map</text>
<text text-anchor="start" x="22" y="-265.2" font-family="DejaVu Sans" font-size="16.00"> &#160;&#160;&#160;&#160;&#160;&#160;&#160;and follow plant&#45;row goals</text>
<text text-anchor="start" x="22" y="-249.2" font-family="DejaVu Sans" font-size="16.00"> &#160;&#160;&#160;&#160;&#160;&#160;&#160;</text>
<text text-anchor="start" x="65" y="-249.2" font-family="DejaVu Sans" font-weight="bold" font-size="16.00">Main modules:</text>
<text text-anchor="start" x="196" y="-249.2" font-family="DejaVu Sans" font-size="16.00"> SLAM Toolbox, AMCL,</text>
<text text-anchor="start" x="46" y="-233.2" font-family="DejaVu Sans" font-size="16.00"> &#160;&#160;&#160;&#160;&#160;&#160;&#160;robot_localization EKF, Nav2 &#160;&#160;&#160;&#160;&#160;</text>
</g>
<!-- layer2&#45;&gt;layer3 -->
<g id="edge2" class="edge">
<title>layer2&#45;&gt;layer3</title>
<path fill="none" stroke="#16a34a" stroke-width="2" d="M339.92,-382.98C324.65,-372.3 308.75,-361.18 293.34,-350.4"/>
<polygon fill="#16a34a" stroke="#16a34a" stroke-width="2" points="294.57,-348.18 287.23,-346.12 291.68,-352.31 294.57,-348.18"/>
<text text-anchor="middle" x="367" y="-361.4" font-family="DejaVu Sans" font-size="12.00">scan, odom, TF</text>
</g>
<!-- layer4 -->
<g id="node4" class="node">
<title>layer4</title>
<polygon fill="#db2777" stroke="transparent" points="414,-304 414,-346 914,-346 914,-304 414,-304"/>
<polygon fill="none" stroke="#f9a8d4" points="414,-304 414,-346 914,-346 914,-304 414,-304"/>
<text text-anchor="start" x="455" y="-321.6" font-family="DejaVu Sans" font-weight="bold" font-size="18.00" fill="white">Layer 4 &#45; Perception and Tomato Mapping</text>
<polygon fill="#fdf2f8" stroke="transparent" points="414,-218 414,-304 914,-304 914,-218 414,-218"/>
<polygon fill="none" stroke="#f9a8d4" points="414,-218 414,-304 914,-304 914,-218 414,-218"/>
<text text-anchor="start" x="425" y="-281.2" font-family="DejaVu Sans" font-size="16.00"> &#160;&#160;&#160;&#160;&#160;&#160;&#160;</text>
<text text-anchor="start" x="468" y="-281.2" font-family="DejaVu Sans" font-weight="bold" font-size="16.00">Role:</text>
<text text-anchor="start" x="514" y="-281.2" font-family="DejaVu Sans" font-size="16.00"> Detect tomatoes, estimate 3D positions,</text>
<text text-anchor="start" x="425" y="-265.2" font-family="DejaVu Sans" font-size="16.00"> &#160;&#160;&#160;&#160;&#160;&#160;&#160;and publish a live tomato map</text>
<text text-anchor="start" x="425" y="-249.2" font-family="DejaVu Sans" font-size="16.00"> &#160;&#160;&#160;&#160;&#160;&#160;&#160;</text>
<text text-anchor="start" x="468" y="-249.2" font-family="DejaVu Sans" font-weight="bold" font-size="16.00">Main modules:</text>
<text text-anchor="start" x="599" y="-249.2" font-family="DejaVu Sans" font-size="16.00"> YOLO detector, TomatoDepthMapper,</text>
<text text-anchor="start" x="456.5" y="-233.2" font-family="DejaVu Sans" font-size="16.00"> &#160;&#160;&#160;&#160;&#160;&#160;&#160;/tomato_map/list, bbox viewer, map panel &#160;&#160;&#160;&#160;&#160;</text>
</g>
<!-- layer2&#45;&gt;layer4 -->
<g id="edge3" class="edge">
<title>layer2&#45;&gt;layer4</title>
<path fill="none" stroke="#db2777" stroke-width="2" d="M520.47,-382.98C535.8,-372.3 551.77,-361.18 567.25,-350.4"/>
<polygon fill="#db2777" stroke="#db2777" stroke-width="2" points="568.92,-352.3 573.38,-346.12 566.04,-348.17 568.92,-352.3"/>
<text text-anchor="middle" x="590.5" y="-361.4" font-family="DejaVu Sans" font-size="12.00">RGB&#45;D + TF</text>
</g>
<!-- layer5 -->
<g id="node5" class="node">
<title>layer5</title>
<polygon fill="#7c3aed" stroke="transparent" points="198,-139 198,-181 663,-181 663,-139 198,-139"/>
<polygon fill="none" stroke="#c4b5fd" points="198,-139 198,-181 663,-181 663,-139 198,-139"/>
<text text-anchor="start" x="211.5" y="-156.6" font-family="DejaVu Sans" font-weight="bold" font-size="18.00" fill="white">Layer 5 &#45; Mission, Planning, and Harvesting</text>
<polygon fill="#f5f3ff" stroke="transparent" points="198,-53 198,-139 663,-139 663,-53 198,-53"/>
<polygon fill="none" stroke="#c4b5fd" points="198,-53 198,-139 663,-139 663,-53 198,-53"/>
<text text-anchor="start" x="209" y="-116.2" font-family="DejaVu Sans" font-size="16.00"> &#160;&#160;&#160;&#160;&#160;&#160;&#160;</text>
<text text-anchor="start" x="252" y="-116.2" font-family="DejaVu Sans" font-weight="bold" font-size="16.00">Role:</text>
<text text-anchor="start" x="298" y="-116.2" font-family="DejaVu Sans" font-size="16.00"> Select targets, avoid obstacles,</text>
<text text-anchor="start" x="209" y="-100.2" font-family="DejaVu Sans" font-size="16.00"> &#160;&#160;&#160;&#160;&#160;&#160;&#160;and execute pick&#45;place motions</text>
<text text-anchor="start" x="209" y="-84.2" font-family="DejaVu Sans" font-size="16.00"> &#160;&#160;&#160;&#160;&#160;&#160;&#160;</text>
<text text-anchor="start" x="252" y="-84.2" font-family="DejaVu Sans" font-weight="bold" font-size="16.00">Main modules:</text>
<text text-anchor="start" x="383" y="-84.2" font-family="DejaVu Sans" font-size="16.00"> MissionManager, collision scene,</text>
<text text-anchor="start" x="244" y="-68.2" font-family="DejaVu Sans" font-size="16.00"> &#160;&#160;&#160;&#160;&#160;&#160;&#160;target selector, MoveIt/OMPL, Pilz LIN &#160;&#160;&#160;&#160;&#160;</text>
</g>
<!-- layer3&#45;&gt;layer5 -->
<g id="edge4" class="edge">
<title>layer3&#45;&gt;layer5</title>
<path fill="none" stroke="#ea580c" stroke-width="2" d="M287.08,-217.98C302.35,-207.3 318.25,-196.18 333.66,-185.4"/>
<polygon fill="#ea580c" stroke="#ea580c" stroke-width="2" points="335.32,-187.31 339.77,-181.12 332.43,-183.18 335.32,-187.31"/>
<text text-anchor="middle" x="374" y="-196.4" font-family="DejaVu Sans" font-size="12.00">pose + waypoints</text>
</g>
<!-- layer4&#45;&gt;layer5 -->
<g id="edge5" class="edge">
<title>layer4&#45;&gt;layer5</title>
<path fill="none" stroke="#7c3aed" stroke-width="2" d="M573.53,-217.98C558.2,-207.3 542.23,-196.18 526.75,-185.4"/>
<polygon fill="#7c3aed" stroke="#7c3aed" stroke-width="2" points="527.96,-183.17 520.62,-181.12 525.08,-187.3 527.96,-183.17"/>
<text text-anchor="middle" x="592.5" y="-196.4" font-family="DejaVu Sans" font-size="12.00">tomato map</text>
</g>
<!-- feedback -->
<g id="node6" class="node">
<title>feedback</title>
<polygon fill="#f8fafc" stroke="transparent" points="54,0 54,-28 807,-28 807,0 54,0"/>
<text text-anchor="start" x="61" y="-10.6" font-family="DejaVu Sans" font-size="13.00" fill="#475569"> &#160;&#160;&#160;&#160;&#160;&#160;&#160;Closed&#45;loop execution: commands return to controllers; Gazebo attach/detach updates tomato state. &#160;&#160;&#160;&#160;&#160;</text>
</g>
<!-- layer5&#45;&gt;feedback -->
<g id="edge6" class="edge">
<title>layer5&#45;&gt;feedback</title>
<path fill="none" stroke="#64748b" stroke-width="2" stroke-dasharray="5,2" d="M430,-52.9C430,-43.65 430,-35 430,-28.3"/>
</g>
<!-- feedback&#45;&gt;layer2 -->
<g id="edge7" class="edge">
<title>feedback&#45;&gt;layer2</title>
<path fill="none" stroke="#334155" stroke-width="2" d="M447.57,-28.12C502.77,-72.46 669,-206 669,-206 669,-206 569.77,-306.06 499.19,-377.23"/>
<polygon fill="#334155" stroke="#334155" stroke-width="2" points="497.01,-375.85 493.73,-382.73 500.59,-379.4 497.01,-375.85"/>
<text text-anchor="middle" x="725.5" y="-196.4" font-family="DejaVu Sans" font-size="12.00">motion commands</text>
</g>
</g>
</svg>
