<?xml version="1.0" encoding="UTF-8" standalone="no"?>
<!DOCTYPE svg PUBLIC "-//W3C//DTD SVG 1.1//EN"
 "http://www.w3.org/Graphics/SVG/1.1/DTD/svg11.dtd">
<!-- Generated by graphviz version 2.43.0 (0)
 -->
<!-- Title: ROS2TopicFlow Pages: 1 -->
<svg width="8073pt" height="3551pt"
 viewBox="0.00 0.00 2642.00 1162.00" xmlns="http://www.w3.org/2000/svg" xmlns:xlink="http://www.w3.org/1999/xlink">
<g id="graph0" class="graph" transform="scale(3.06 3.06) rotate(0) translate(18 1144)">
<title>ROS2TopicFlow</title>
<polygon fill="white" stroke="transparent" points="-18,18 -18,-1144 2624,-1144 2624,18 -18,18"/>
<text text-anchor="start" x="1039" y="-1098.6" font-family="DejaVu Sans" font-weight="bold" font-size="28.00">ROS2 Node Graph and Topic Flow</text>
<text text-anchor="start" x="1042" y="-1073" font-family="DejaVu Sans" font-size="15.00" fill="#64748b">Main runtime communication paths used in survey and harvest mode</text>
<g id="clust1" class="cluster">
<title>cluster_sim</title>
<path fill="#eff8ff" stroke="#bae6fd" d="M1531,-424C1531,-424 1709,-424 1709,-424 1715,-424 1721,-430 1721,-436 1721,-436 1721,-643 1721,-643 1721,-649 1715,-655 1709,-655 1709,-655 1531,-655 1531,-655 1525,-655 1519,-649 1519,-643 1519,-643 1519,-436 1519,-436 1519,-430 1525,-424 1531,-424"/>
<text text-anchor="middle" x="1620" y="-639.8" font-family="DejaVu Sans" font-size="14.00">Gazebo / Robot</text>
</g>
<g id="clust2" class="cluster">
<title>cluster_bridge</title>
<path fill="#f0fdf4" stroke="#bbf7d0" d="M339.5,-724C339.5,-724 902.5,-724 902.5,-724 908.5,-724 914.5,-730 914.5,-736 914.5,-736 914.5,-860 914.5,-860 914.5,-866 908.5,-872 902.5,-872 902.5,-872 339.5,-872 339.5,-872 333.5,-872 327.5,-866 327.5,-860 327.5,-860 327.5,-736 327.5,-736 327.5,-730 333.5,-724 339.5,-724"/>
<text text-anchor="middle" x="621" y="-856.8" font-family="DejaVu Sans" font-size="14.00">ROS2 Interface</text>
</g>
<g id="clust3" class="cluster">
<title>cluster_nav</title>
<path fill="#fff7ed" stroke="#fed7aa" d="M20,-8C20,-8 1305,-8 1305,-8 1311,-8 1317,-14 1317,-20 1317,-20 1317,-144 1317,-144 1317,-150 1311,-156 1305,-156 1305,-156 20,-156 20,-156 14,-156 8,-150 8,-144 8,-144 8,-20 8,-20 8,-14 14,-8 20,-8"/>
<text text-anchor="middle" x="662.5" y="-140.8" font-family="DejaVu Sans" font-size="14.00">Navigation</text>
</g>
<g id="clust4" class="cluster">
<title>cluster_perception</title>
<path fill="#fdf2f8" stroke="#fbcfe8" d="M310,-916C310,-916 2100,-916 2100,-916 2106,-916 2112,-922 2112,-928 2112,-928 2112,-1042 2112,-1042 2112,-1048 2106,-1054 2100,-1054 2100,-1054 310,-1054 310,-1054 304,-1054 298,-1048 298,-1042 298,-1042 298,-928 298,-928 298,-922 304,-916 310,-916"/>
<text text-anchor="middle" x="1205" y="-1038.8" font-family="DejaVu Sans" font-size="14.00">Perception and Tomato Map</text>
</g>
<g id="clust5" class="cluster">
<title>cluster_harvest</title>
<path fill="#f5f3ff" stroke="#ddd6fe" d="M325.5,-164C325.5,-164 2586,-164 2586,-164 2592,-164 2598,-170 2598,-176 2598,-176 2598,-363 2598,-363 2598,-369 2592,-375 2586,-375 2586,-375 325.5,-375 325.5,-375 319.5,-375 313.5,-369 313.5,-363 313.5,-363 313.5,-176 313.5,-176 313.5,-170 319.5,-164 325.5,-164"/>
<text text-anchor="middle" x="1455.75" y="-359.8" font-family="DejaVu Sans" font-size="14.00">Mission, Planning, Harvest</text>
</g>
<!-- gazebo -->
<g id="node1" class="node">
<title>gazebo</title>
<path fill="white" stroke="#334155" d="M1690.5,-551C1690.5,-551 1549.5,-551 1549.5,-551 1543.5,-551 1537.5,-545 1537.5,-539 1537.5,-539 1537.5,-517 1537.5,-517 1537.5,-511 1543.5,-505 1549.5,-505 1549.5,-505 1690.5,-505 1690.5,-505 1696.5,-505 1702.5,-511 1702.5,-517 1702.5,-517 1702.5,-539 1702.5,-539 1702.5,-545 1696.5,-551 1690.5,-551"/>
<text text-anchor="middle" x="1620" y="-533" font-family="DejaVu Sans" font-size="15.00">Gazebo Harmonic</text>
<text text-anchor="middle" x="1620" y="-516" font-family="DejaVu Sans" font-size="15.00">/tomato_farm world</text>
</g>
<!-- bridge -->
<g id="node4" class="node">
<title>bridge</title>
<path fill="white" stroke="#334155" d="M445.5,-841C445.5,-841 347.5,-841 347.5,-841 341.5,-841 335.5,-835 335.5,-829 335.5,-829 335.5,-817 335.5,-817 335.5,-811 341.5,-805 347.5,-805 347.5,-805 445.5,-805 445.5,-805 451.5,-805 457.5,-811 457.5,-817 457.5,-817 457.5,-829 457.5,-829 457.5,-835 451.5,-841 445.5,-841"/>
<text text-anchor="middle" x="396.5" y="-819.5" font-family="DejaVu Sans" font-size="15.00">ros_gz_bridge</text>
</g>
<!-- gazebo&#45;&gt;bridge -->
<g id="edge1" class="edge">
<title>gazebo&#45;&gt;bridge</title>
<path fill="none" stroke="#0284c7" stroke-width="2.1" d="M1537.34,-535.67C1274.79,-535.67 477,-535.67 477,-535.67 477,-535.67 477,-814 477,-814 477,-814 464.71,-814 464.71,-814"/>
<polygon fill="#0284c7" stroke="#0284c7" stroke-width="2.1" points="464.71,-811.48 457.51,-814 464.71,-816.52 464.71,-811.48"/>
<text text-anchor="middle" x="1010.5" y="-546.4" font-family="DejaVu Sans" font-size="12.00">Gz sensor topics</text>
</g>
<!-- controllers -->
<g id="node2" class="node">
<title>controllers</title>
<path fill="white" stroke="#334155" d="M1701,-478C1701,-478 1539,-478 1539,-478 1533,-478 1527,-472 1527,-466 1527,-466 1527,-444 1527,-444 1527,-438 1533,-432 1539,-432 1539,-432 1701,-432 1701,-432 1707,-432 1713,-438 1713,-444 1713,-444 1713,-466 1713,-466 1713,-472 1707,-478 1701,-478"/>
<text text-anchor="middle" x="1620" y="-460" font-family="DejaVu Sans" font-size="15.00">ros2_control</text>
<text text-anchor="middle" x="1620" y="-443" font-family="DejaVu Sans" font-size="15.00">Drive + FR3 + gripper</text>
</g>
<!-- joint_tf -->
<g id="node6" class="node">
<title>joint_tf</title>
<path fill="#ecfdf5" stroke="#334155" d="M439.5,-778C439.5,-778 353.5,-778 353.5,-778 347.5,-778 341.5,-772 341.5,-766 341.5,-766 341.5,-744 341.5,-744 341.5,-738 347.5,-732 353.5,-732 353.5,-732 439.5,-732 439.5,-732 445.5,-732 451.5,-738 451.5,-744 451.5,-744 451.5,-766 451.5,-766 451.5,-772 445.5,-778 439.5,-778"/>
<text text-anchor="middle" x="396.5" y="-760" font-family="DejaVu Sans" font-size="15.00">/joint_states</text>
<text text-anchor="middle" x="396.5" y="-743" font-family="DejaVu Sans" font-size="15.00">/tf, /tf_static</text>
</g>
<!-- controllers&#45;&gt;joint_tf -->
<g id="edge3" class="edge">
<title>controllers&#45;&gt;joint_tf</title>
<path fill="none" stroke="#16a34a" stroke-width="1.7" d="M1526.82,-462.67C1241.17,-462.67 397,-462.67 397,-462.67 397,-462.67 397,-724.37 397,-724.37"/>
<polygon fill="#16a34a" stroke="#16a34a" stroke-width="1.7" points="394.48,-724.37 397,-731.57 399.52,-724.37 394.48,-724.37"/>
<text text-anchor="middle" x="1010.5" y="-490.4" font-family="DejaVu Sans" font-size="12.00">joint states</text>
</g>
<!-- robot_state -->
<g id="node3" class="node">
<title>robot_state</title>
<path fill="white" stroke="#334155" d="M1698.5,-624C1698.5,-624 1541.5,-624 1541.5,-624 1535.5,-624 1529.5,-618 1529.5,-612 1529.5,-612 1529.5,-590 1529.5,-590 1529.5,-584 1535.5,-578 1541.5,-578 1541.5,-578 1698.5,-578 1698.5,-578 1704.5,-578 1710.5,-584 1710.5,-590 1710.5,-590 1710.5,-612 1710.5,-612 1710.5,-618 1704.5,-624 1698.5,-624"/>
<text text-anchor="middle" x="1620" y="-606" font-family="DejaVu Sans" font-size="15.00">robot_state_publisher</text>
<text text-anchor="middle" x="1620" y="-589" font-family="DejaVu Sans" font-size="15.00">URDF &#45;&gt; TF</text>
</g>
<!-- robot_state&#45;&gt;joint_tf -->
<g id="edge4" class="edge">
<title>robot_state&#45;&gt;joint_tf</title>
<path fill="none" stroke="#16a34a" stroke-width="1.7" d="M1539,-624.23C1539,-664.18 1539,-741.67 1539,-741.67 1539,-741.67 458.81,-741.67 458.81,-741.67"/>
<polygon fill="#16a34a" stroke="#16a34a" stroke-width="1.7" points="458.81,-739.15 451.61,-741.67 458.81,-744.19 458.81,-739.15"/>
<text text-anchor="middle" x="1010.5" y="-601.4" font-family="DejaVu Sans" font-size="12.00">robot frames</text>
</g>
<!-- sensor_topics -->
<g id="node5" class="node">
<title>sensor_topics</title>
<path fill="#ecfdf5" stroke="#334155" d="M894.5,-841C894.5,-841 690.5,-841 690.5,-841 684.5,-841 678.5,-835 678.5,-829 678.5,-829 678.5,-773 678.5,-773 678.5,-767 684.5,-761 690.5,-761 690.5,-761 894.5,-761 894.5,-761 900.5,-761 906.5,-767 906.5,-773 906.5,-773 906.5,-829 906.5,-829 906.5,-835 900.5,-841 894.5,-841"/>
<text text-anchor="middle" x="792.5" y="-823" font-family="DejaVu Sans" font-size="15.00">/camera/color/image_raw</text>
<text text-anchor="middle" x="792.5" y="-806" font-family="DejaVu Sans" font-size="15.00">/camera/depth/image</text>
<text text-anchor="middle" x="792.5" y="-789" font-family="DejaVu Sans" font-size="15.00">/camera/depth/camera_info</text>
<text text-anchor="middle" x="792.5" y="-772" font-family="DejaVu Sans" font-size="15.00">/scan, /imu/data_raw, /clock</text>
</g>
<!-- bridge&#45;&gt;sensor_topics -->
<g id="edge2" class="edge">
<title>bridge&#45;&gt;sensor_topics</title>
<path fill="none" stroke="#16a34a" stroke-width="2.1" d="M457.51,-823C457.51,-823 671.19,-823 671.19,-823"/>
<polygon fill="#16a34a" stroke="#16a34a" stroke-width="2.1" points="671.19,-825.52 678.39,-823 671.19,-820.48 671.19,-825.52"/>
<text text-anchor="middle" x="573" y="-815.4" font-family="DejaVu Sans" font-size="12.00">ROS sensor topics</text>
</g>
<!-- ekf -->
<g id="node7" class="node">
<title>ekf</title>
<path fill="white" stroke="#334155" d="M188,-125C188,-125 28,-125 28,-125 22,-125 16,-119 16,-113 16,-113 16,-101 16,-101 16,-95 22,-89 28,-89 28,-89 188,-89 188,-89 194,-89 200,-95 200,-101 200,-101 200,-113 200,-113 200,-119 194,-125 188,-125"/>
<text text-anchor="middle" x="108" y="-103.5" font-family="DejaVu Sans" font-size="15.00">robot_localization EKF</text>
</g>
<!-- sensor_topics&#45;&gt;ekf -->
<g id="edge14" class="edge">
<title>sensor_topics&#45;&gt;ekf</title>
<path fill="none" stroke="#ea580c" stroke-width="1.7" d="M678.5,-791.5C476.77,-791.5 78,-791.5 78,-791.5 78,-791.5 78,-132.51 78,-132.51"/>
<polygon fill="#ea580c" stroke="#ea580c" stroke-width="1.7" points="80.52,-132.51 78,-125.31 75.48,-132.51 80.52,-132.51"/>
<text text-anchor="middle" x="396.5" y="-898.4" font-family="DejaVu Sans" font-size="12.00">IMU + odom inputs</text>
</g>
<!-- yolo -->
<g id="node12" class="node">
<title>yolo</title>
<path fill="white" stroke="#334155" d="M475,-987C475,-987 318,-987 318,-987 312,-987 306,-981 306,-975 306,-975 306,-963 306,-963 306,-957 312,-951 318,-951 318,-951 475,-951 475,-951 481,-951 487,-957 487,-963 487,-963 487,-975 487,-975 487,-981 481,-987 475,-987"/>
<text text-anchor="middle" x="396.5" y="-965.5" font-family="DejaVu Sans" font-size="15.00">yolo_tomato_detector</text>
</g>
<!-- sensor_topics&#45;&gt;yolo -->
<g id="edge5" class="edge">
<title>sensor_topics&#45;&gt;yolo</title>
<path fill="none" stroke="#db2777" stroke-width="2" d="M678.2,-832C589.67,-832 482,-832 482,-832 482,-832 482,-943.61 482,-943.61"/>
<polygon fill="#db2777" stroke="#db2777" stroke-width="2" points="479.48,-943.61 482,-950.81 484.52,-943.61 479.48,-943.61"/>
<text text-anchor="middle" x="573" y="-943.4" font-family="DejaVu Sans" font-size="12.00">RGB image</text>
</g>
<!-- depth_mapper -->
<g id="node14" class="node">
<title>depth_mapper</title>
<path fill="white" stroke="#334155" d="M1306.5,-960C1306.5,-960 1141.5,-960 1141.5,-960 1135.5,-960 1129.5,-954 1129.5,-948 1129.5,-948 1129.5,-936 1129.5,-936 1129.5,-930 1135.5,-924 1141.5,-924 1141.5,-924 1306.5,-924 1306.5,-924 1312.5,-924 1318.5,-930 1318.5,-936 1318.5,-936 1318.5,-948 1318.5,-948 1318.5,-954 1312.5,-960 1306.5,-960"/>
<text text-anchor="middle" x="1224" y="-938.5" font-family="DejaVu Sans" font-size="15.00">tomato_depth_mapper</text>
</g>
<!-- sensor_topics&#45;&gt;depth_mapper -->
<g id="edge8" class="edge">
<title>sensor_topics&#45;&gt;depth_mapper</title>
<path fill="none" stroke="#db2777" stroke-width="2" d="M793,-841.22C793,-881.48 793,-937.5 793,-937.5 793,-937.5 1122.22,-937.5 1122.22,-937.5"/>
<polygon fill="#db2777" stroke="#db2777" stroke-width="2" points="1122.22,-940.02 1129.42,-937.5 1122.22,-934.98 1122.22,-940.02"/>
<text text-anchor="middle" x="1010.5" y="-818.4" font-family="DejaVu Sans" font-size="12.00">depth + CameraInfo</text>
</g>
<!-- bbox_viewer -->
<g id="node16" class="node">
<title>bbox_viewer</title>
<path fill="white" stroke="#334155" d="M1288,-1023C1288,-1023 1160,-1023 1160,-1023 1154,-1023 1148,-1017 1148,-1011 1148,-1011 1148,-999 1148,-999 1148,-993 1154,-987 1160,-987 1160,-987 1288,-987 1288,-987 1294,-987 1300,-993 1300,-999 1300,-999 1300,-1011 1300,-1011 1300,-1017 1294,-1023 1288,-1023"/>
<text text-anchor="middle" x="1224" y="-1001.5" font-family="DejaVu Sans" font-size="15.00">yolo_bbox_viewer</text>
</g>
<!-- sensor_topics&#45;&gt;bbox_viewer -->
<g id="edge12" class="edge">
<title>sensor_topics&#45;&gt;bbox_viewer</title>
<path fill="none" stroke="#be185d" stroke-width="1.7" stroke-dasharray="5,2" d="M906.55,-801C959.53,-801 1011,-801 1011,-801 1011,-801 1011,-992.33 1011,-992.33 1011,-992.33 1140.5,-992.33 1140.5,-992.33"/>
<polygon fill="#be185d" stroke="#be185d" stroke-width="1.7" points="1140.5,-994.85 1147.7,-992.33 1140.5,-989.81 1140.5,-994.85"/>
<text text-anchor="middle" x="1010.5" y="-897.4" font-family="DejaVu Sans" font-size="12.00">image</text>
</g>
<!-- joint_tf&#45;&gt;ekf -->
<g id="edge15" class="edge">
<title>joint_tf&#45;&gt;ekf</title>
<path fill="none" stroke="#ea580c" stroke-width="1.7" d="M341.26,-755C265.6,-755 139,-755 139,-755 139,-755 139,-132.21 139,-132.21"/>
<polygon fill="#ea580c" stroke="#ea580c" stroke-width="1.7" points="141.52,-132.21 139,-125.01 136.48,-132.21 141.52,-132.21"/>
<text text-anchor="middle" x="253" y="-454.4" font-family="DejaVu Sans" font-size="12.00">odom TF</text>
</g>
<!-- joint_tf&#45;&gt;depth_mapper -->
<g id="edge9" class="edge">
<title>joint_tf&#45;&gt;depth_mapper</title>
<path fill="none" stroke="#db2777" stroke-width="1.7" d="M451.56,-751.33C631.85,-751.33 1193,-751.33 1193,-751.33 1193,-751.33 1193,-916.52 1193,-916.52"/>
<polygon fill="#db2777" stroke="#db2777" stroke-width="1.7" points="1190.48,-916.52 1193,-923.72 1195.52,-916.52 1190.48,-916.52"/>
<text text-anchor="middle" x="792.5" y="-724.4" font-family="DejaVu Sans" font-size="12.00">camera TF</text>
</g>
<!-- amcl -->
<g id="node8" class="node">
<title>amcl</title>
<path fill="white" stroke="#334155" d="M415,-96C415,-96 378,-96 378,-96 372,-96 366,-90 366,-84 366,-84 366,-72 366,-72 366,-66 372,-60 378,-60 378,-60 415,-60 415,-60 421,-60 427,-66 427,-72 427,-72 427,-84 427,-84 427,-90 421,-96 415,-96"/>
<text text-anchor="middle" x="396.5" y="-74.5" font-family="DejaVu Sans" font-size="15.00">AMCL</text>
</g>
<!-- ekf&#45;&gt;amcl -->
<g id="edge17" class="edge">
<title>ekf&#45;&gt;amcl</title>
<path fill="none" stroke="#ea580c" stroke-width="1.7" d="M200.08,-92.5C200.08,-92.5 358.74,-92.5 358.74,-92.5"/>
<polygon fill="#ea580c" stroke="#ea580c" stroke-width="1.7" points="358.74,-95.02 365.94,-92.5 358.74,-89.98 358.74,-95.02"/>
<text text-anchor="middle" x="253" y="-105.4" font-family="DejaVu Sans" font-size="12.00">odom</text>
</g>
<!-- nav_topics -->
<g id="node11" class="node">
<title>nav_topics</title>
<path fill="#fffbeb" stroke="#334155" d="M858,-124.5C858,-124.5 727,-124.5 727,-124.5 721,-124.5 715,-118.5 715,-112.5 715,-112.5 715,-73.5 715,-73.5 715,-67.5 721,-61.5 727,-61.5 727,-61.5 858,-61.5 858,-61.5 864,-61.5 870,-67.5 870,-73.5 870,-73.5 870,-112.5 870,-112.5 870,-118.5 864,-124.5 858,-124.5"/>
<text text-anchor="middle" x="792.5" y="-106.5" font-family="DejaVu Sans" font-size="15.00">/amcl_pose</text>
<text text-anchor="middle" x="792.5" y="-89.5" font-family="DejaVu Sans" font-size="15.00">/navigate_to_pose</text>
<text text-anchor="middle" x="792.5" y="-72.5" font-family="DejaVu Sans" font-size="15.00">/cmd_vel</text>
</g>
<!-- amcl&#45;&gt;nav_topics -->
<g id="edge18" class="edge">
<title>amcl&#45;&gt;nav_topics</title>
<path fill="none" stroke="#ea580c" stroke-width="1.7" d="M427.24,-78.75C427.24,-78.75 707.53,-78.75 707.53,-78.75"/>
<polygon fill="#ea580c" stroke="#ea580c" stroke-width="1.7" points="707.53,-81.27 714.73,-78.75 707.53,-76.23 707.53,-81.27"/>
<text text-anchor="middle" x="573" y="-81.4" font-family="DejaVu Sans" font-size="12.00">/amcl_pose</text>
</g>
<!-- nav2 -->
<g id="node9" class="node">
<title>nav2</title>
<path fill="white" stroke="#334155" d="M1297,-122C1297,-122 1151,-122 1151,-122 1145,-122 1139,-116 1139,-110 1139,-110 1139,-88 1139,-88 1139,-82 1145,-76 1151,-76 1151,-76 1297,-76 1297,-76 1303,-76 1309,-82 1309,-88 1309,-88 1309,-110 1309,-110 1309,-116 1303,-122 1297,-122"/>
<text text-anchor="middle" x="1224" y="-104" font-family="DejaVu Sans" font-size="15.00">Nav2</text>
<text text-anchor="middle" x="1224" y="-87" font-family="DejaVu Sans" font-size="15.00">planner + controller</text>
</g>
<!-- nav2&#45;&gt;controllers -->
<g id="edge38" class="edge">
<title>nav2&#45;&gt;controllers</title>
<path fill="none" stroke="#334155" stroke-width="1.7" d="M1309.32,-99C1378.99,-99 1466,-99 1466,-99 1466,-99 1466,-447.33 1466,-447.33 1466,-447.33 1519.66,-447.33 1519.66,-447.33"/>
<polygon fill="#334155" stroke="#334155" stroke-width="1.7" points="1519.66,-449.85 1526.86,-447.33 1519.66,-444.81 1519.66,-449.85"/>
<text text-anchor="middle" x="1437.5" y="-413.4" font-family="DejaVu Sans" font-size="12.00">base velocity</text>
</g>
<!-- initial_pose -->
<g id="node10" class="node">
<title>initial_pose</title>
<path fill="white" stroke="#334155" d="M187,-62C187,-62 29,-62 29,-62 23,-62 17,-56 17,-50 17,-50 17,-28 17,-28 17,-22 23,-16 29,-16 29,-16 187,-16 187,-16 193,-16 199,-22 199,-28 199,-28 199,-50 199,-50 199,-56 193,-62 187,-62"/>
<text text-anchor="middle" x="108" y="-44" font-family="DejaVu Sans" font-size="15.00">initial_pose_publisher</text>
<text text-anchor="middle" x="108" y="-27" font-family="DejaVu Sans" font-size="15.00">/initialpose</text>
</g>
<!-- initial_pose&#45;&gt;amcl -->
<g id="edge16" class="edge">
<title>initial_pose&#45;&gt;amcl</title>
<path fill="none" stroke="#ea580c" stroke-width="1.7" d="M199.04,-38C283.76,-38 397,-38 397,-38 397,-38 397,-52.67 397,-52.67"/>
<polygon fill="#ea580c" stroke="#ea580c" stroke-width="1.7" points="394.48,-52.67 397,-59.87 399.52,-52.67 394.48,-52.67"/>
<text text-anchor="middle" x="253" y="-55.4" font-family="DejaVu Sans" font-size="12.00">/initialpose</text>
</g>
<!-- nav_topics&#45;&gt;nav2 -->
<g id="edge19" class="edge">
<title>nav_topics&#45;&gt;nav2</title>
<path fill="none" stroke="#ea580c" stroke-width="1.7" d="M870.14,-99C870.14,-99 1131.65,-99 1131.65,-99"/>
<polygon fill="#ea580c" stroke="#ea580c" stroke-width="1.7" points="1131.65,-101.52 1138.85,-99 1131.65,-96.48 1131.65,-101.52"/>
<text text-anchor="middle" x="1010.5" y="-98.4" font-family="DejaVu Sans" font-size="12.00">pose + goals</text>
</g>
<!-- mission -->
<g id="node18" class="node">
<title>mission</title>
<path fill="white" stroke="#334155" d="M459.5,-253C459.5,-253 333.5,-253 333.5,-253 327.5,-253 321.5,-247 321.5,-241 321.5,-241 321.5,-229 321.5,-229 321.5,-223 327.5,-217 333.5,-217 333.5,-217 459.5,-217 459.5,-217 465.5,-217 471.5,-223 471.5,-229 471.5,-229 471.5,-241 471.5,-241 471.5,-247 465.5,-253 459.5,-253"/>
<text text-anchor="middle" x="396.5" y="-231.5" font-family="DejaVu Sans" font-size="15.00">mission_manager</text>
</g>
<!-- nav_topics&#45;&gt;mission -->
<g id="edge21" class="edge">
<title>nav_topics&#45;&gt;mission</title>
<path fill="none" stroke="#7c3aed" stroke-width="1.7" d="M714.71,-105.5C611.45,-105.5 442,-105.5 442,-105.5 442,-105.5 442,-209.79 442,-209.79"/>
<polygon fill="#7c3aed" stroke="#7c3aed" stroke-width="1.7" points="439.48,-209.79 442,-216.99 444.52,-209.79 439.48,-209.79"/>
<text text-anchor="middle" x="573" y="-126.4" font-family="DejaVu Sans" font-size="12.00">goal result</text>
</g>
<!-- yolo_topic -->
<g id="node13" class="node">
<title>yolo_topic</title>
<path fill="#fce7f3" stroke="#334155" d="M899.5,-1003C899.5,-1003 685.5,-1003 685.5,-1003 679.5,-1003 673.5,-997 673.5,-991 673.5,-991 673.5,-979 673.5,-979 673.5,-973 679.5,-967 685.5,-967 685.5,-967 899.5,-967 899.5,-967 905.5,-967 911.5,-973 911.5,-979 911.5,-979 911.5,-991 911.5,-991 911.5,-997 905.5,-1003 899.5,-1003"/>
<text text-anchor="middle" x="792.5" y="-981.5" font-family="DejaVu Sans" font-size="15.00">/yolo/tomato_detections_json</text>
</g>
<!-- yolo&#45;&gt;yolo_topic -->
<g id="edge6" class="edge">
<title>yolo&#45;&gt;yolo_topic</title>
<path fill="none" stroke="#db2777" stroke-width="2" d="M487.35,-977C487.35,-977 665.95,-977 665.95,-977"/>
<polygon fill="#db2777" stroke="#db2777" stroke-width="2" points="665.95,-979.52 673.15,-977 665.95,-974.48 665.95,-979.52"/>
<text text-anchor="middle" x="573" y="-988.4" font-family="DejaVu Sans" font-size="12.00">bbox JSON</text>
</g>
<!-- yolo_topic&#45;&gt;depth_mapper -->
<g id="edge7" class="edge">
<title>yolo_topic&#45;&gt;depth_mapper</title>
<path fill="none" stroke="#db2777" stroke-width="2" d="M911.75,-978C1011.98,-978 1139,-978 1139,-978 1139,-978 1139,-967.62 1139,-967.62"/>
<polygon fill="#db2777" stroke="#db2777" stroke-width="2" points="1141.52,-967.62 1139,-960.42 1136.48,-967.62 1141.52,-967.62"/>
<text text-anchor="middle" x="1010.5" y="-957.4" font-family="DejaVu Sans" font-size="12.00">detections</text>
</g>
<!-- yolo_topic&#45;&gt;bbox_viewer -->
<g id="edge11" class="edge">
<title>yolo_topic&#45;&gt;bbox_viewer</title>
<path fill="none" stroke="#be185d" stroke-width="1.7" stroke-dasharray="5,2" d="M911.55,-997.67C911.55,-997.67 1140.58,-997.67 1140.58,-997.67"/>
<polygon fill="#be185d" stroke="#be185d" stroke-width="1.7" points="1140.58,-1000.19 1147.78,-997.67 1140.58,-995.15 1140.58,-1000.19"/>
<text text-anchor="middle" x="1010.5" y="-1004.4" font-family="DejaVu Sans" font-size="12.00">labels</text>
</g>
<!-- tomato_map -->
<g id="node15" class="node">
<title>tomato_map</title>
<path fill="#fce7f3" stroke="#334155" d="M1680.5,-964C1680.5,-964 1559.5,-964 1559.5,-964 1553.5,-964 1547.5,-958 1547.5,-952 1547.5,-952 1547.5,-940 1547.5,-940 1547.5,-934 1553.5,-928 1559.5,-928 1559.5,-928 1680.5,-928 1680.5,-928 1686.5,-928 1692.5,-934 1692.5,-940 1692.5,-940 1692.5,-952 1692.5,-952 1692.5,-958 1686.5,-964 1680.5,-964"/>
<text text-anchor="middle" x="1620" y="-942.5" font-family="DejaVu Sans" font-size="15.00">/tomato_map/list</text>
</g>
<!-- depth_mapper&#45;&gt;tomato_map -->
<g id="edge10" class="edge">
<title>depth_mapper&#45;&gt;tomato_map</title>
<path fill="none" stroke="#db2777" stroke-width="2.1" d="M1318.6,-949.33C1318.6,-949.33 1540,-949.33 1540,-949.33"/>
<polygon fill="#db2777" stroke="#db2777" stroke-width="2.1" points="1540,-951.85 1547.2,-949.33 1540,-946.81 1540,-951.85"/>
<text text-anchor="middle" x="1437.5" y="-954.4" font-family="DejaVu Sans" font-size="12.00">3D records</text>
</g>
<!-- map_panel -->
<g id="node17" class="node">
<title>map_panel</title>
<path fill="white" stroke="#334155" d="M2092,-969C2092,-969 1954,-969 1954,-969 1948,-969 1942,-963 1942,-957 1942,-957 1942,-945 1942,-945 1942,-939 1948,-933 1954,-933 1954,-933 2092,-933 2092,-933 2098,-933 2104,-939 2104,-945 2104,-945 2104,-957 2104,-957 2104,-963 2098,-969 2092,-969"/>
<text text-anchor="middle" x="2023" y="-947.5" font-family="DejaVu Sans" font-size="15.00">tomato_map_panel</text>
</g>
<!-- tomato_map&#45;&gt;map_panel -->
<g id="edge13" class="edge">
<title>tomato_map&#45;&gt;map_panel</title>
<path fill="none" stroke="#be185d" stroke-width="1.7" stroke-dasharray="5,2" d="M1692.51,-953.67C1692.51,-953.67 1934.52,-953.67 1934.52,-953.67"/>
<polygon fill="#be185d" stroke="#be185d" stroke-width="1.7" points="1934.52,-956.19 1941.72,-953.67 1934.52,-951.15 1934.52,-956.19"/>
<text text-anchor="middle" x="1804" y="-954.4" font-family="DejaVu Sans" font-size="12.00">GUI table</text>
</g>
<!-- tomato_map&#45;&gt;mission -->
<g id="edge24" class="edge">
<title>tomato_map&#45;&gt;mission</title>
<path fill="none" stroke="#7c3aed" stroke-width="2" d="M1547.44,-938.67C1486.74,-938.67 1410,-938.67 1410,-938.67 1410,-938.67 1410,-225.67 1410,-225.67 1410,-225.67 479.05,-225.67 479.05,-225.67"/>
<polygon fill="#7c3aed" stroke="#7c3aed" stroke-width="2" points="479.05,-223.15 471.85,-225.67 479.05,-228.19 479.05,-223.15"/>
<text text-anchor="middle" x="1010.5" y="-656.4" font-family="DejaVu Sans" font-size="12.00">auto&#45;select inventory</text>
</g>
<!-- collision -->
<g id="node22" class="node">
<title>collision</title>
<path fill="white" stroke="#334155" d="M2144,-271C2144,-271 1902,-271 1902,-271 1896,-271 1890,-265 1890,-259 1890,-259 1890,-247 1890,-247 1890,-241 1896,-235 1902,-235 1902,-235 2144,-235 2144,-235 2150,-235 2156,-241 2156,-247 2156,-247 2156,-259 2156,-259 2156,-265 2150,-271 2144,-271"/>
<text text-anchor="middle" x="2023" y="-249.5" font-family="DejaVu Sans" font-size="15.00">tomato_collision_scene_manager</text>
</g>
<!-- tomato_map&#45;&gt;collision -->
<g id="edge27" class="edge">
<title>tomato_map&#45;&gt;collision</title>
<path fill="none" stroke="#7c3aed" stroke-width="1.7" d="M1692.79,-943.33C1780.43,-943.33 1916,-943.33 1916,-943.33 1916,-943.33 1916,-278.31 1916,-278.31"/>
<polygon fill="#7c3aed" stroke="#7c3aed" stroke-width="1.7" points="1918.52,-278.31 1916,-271.11 1913.48,-278.31 1918.52,-278.31"/>
<text text-anchor="middle" x="1804" y="-605.4" font-family="DejaVu Sans" font-size="12.00">tomato records</text>
</g>
<!-- mission&#45;&gt;nav_topics -->
<g id="edge20" class="edge">
<title>mission&#45;&gt;nav_topics</title>
<path fill="none" stroke="#7c3aed" stroke-width="2" d="M457,-216.77C457,-183.2 457,-115 457,-115 457,-115 707.49,-115 707.49,-115"/>
<polygon fill="#7c3aed" stroke="#7c3aed" stroke-width="2" points="707.49,-117.52 714.69,-115 707.49,-112.48 707.49,-117.52"/>
<text text-anchor="middle" x="573" y="-171.4" font-family="DejaVu Sans" font-size="12.00">NavigateToPose goals</text>
</g>
<!-- mission_status -->
<g id="node19" class="node">
<title>mission_status</title>
<path fill="#ede9fe" stroke="#334155" d="M883.5,-344C883.5,-344 701.5,-344 701.5,-344 695.5,-344 689.5,-338 689.5,-332 689.5,-332 689.5,-320 689.5,-320 689.5,-314 695.5,-308 701.5,-308 701.5,-308 883.5,-308 883.5,-308 889.5,-308 895.5,-314 895.5,-320 895.5,-320 895.5,-332 895.5,-332 895.5,-338 889.5,-344 883.5,-344"/>
<text text-anchor="middle" x="792.5" y="-322.5" font-family="DejaVu Sans" font-size="15.00">/mission_manager/status</text>
</g>
<!-- mission&#45;&gt;mission_status -->
<g id="edge22" class="edge">
<title>mission&#45;&gt;mission_status</title>
<path fill="none" stroke="#7c3aed" stroke-width="1.7" d="M465,-253.42C465,-280.01 465,-326 465,-326 465,-326 682.13,-326 682.13,-326"/>
<polygon fill="#7c3aed" stroke="#7c3aed" stroke-width="1.7" points="682.13,-328.52 689.33,-326 682.13,-323.48 682.13,-328.52"/>
<text text-anchor="middle" x="573" y="-317.4" font-family="DejaVu Sans" font-size="12.00">state + waypoint</text>
</g>
<!-- pick_target -->
<g id="node20" class="node">
<title>pick_target</title>
<path fill="#ede9fe" stroke="#334155" d="M897.5,-281C897.5,-281 687.5,-281 687.5,-281 681.5,-281 675.5,-275 675.5,-269 675.5,-269 675.5,-247 675.5,-247 675.5,-241 681.5,-235 687.5,-235 687.5,-235 897.5,-235 897.5,-235 903.5,-235 909.5,-241 909.5,-247 909.5,-247 909.5,-269 909.5,-269 909.5,-275 903.5,-281 897.5,-281"/>
<text text-anchor="middle" x="792.5" y="-263" font-family="DejaVu Sans" font-size="15.00">/mission_pick/tomato_center</text>
<text text-anchor="middle" x="792.5" y="-246" font-family="DejaVu Sans" font-size="15.00">/mission_pick/tomato_radius</text>
</g>
<!-- mission&#45;&gt;pick_target -->
<g id="edge25" class="edge">
<title>mission&#45;&gt;pick_target</title>
<path fill="none" stroke="#7c3aed" stroke-width="2" d="M471.92,-244C471.92,-244 668.09,-244 668.09,-244"/>
<polygon fill="#7c3aed" stroke="#7c3aed" stroke-width="2" points="668.09,-246.52 675.29,-244 668.09,-241.48 668.09,-246.52"/>
<text text-anchor="middle" x="573" y="-261.4" font-family="DejaVu Sans" font-size="12.00">selected 3D target</text>
</g>
<!-- target_selection -->
<g id="node21" class="node">
<title>target_selection</title>
<path fill="#ede9fe" stroke="#334155" d="M914,-208C914,-208 671,-208 671,-208 665,-208 659,-202 659,-196 659,-196 659,-184 659,-184 659,-178 665,-172 671,-172 671,-172 914,-172 914,-172 920,-172 926,-178 926,-184 926,-184 926,-196 926,-196 926,-202 920,-208 914,-208"/>
<text text-anchor="middle" x="792.5" y="-186.5" font-family="DejaVu Sans" font-size="15.00">/tomato_harvest/target_selection</text>
</g>
<!-- mission&#45;&gt;target_selection -->
<g id="edge26" class="edge">
<title>mission&#45;&gt;target_selection</title>
<path fill="none" stroke="#7c3aed" stroke-width="1.7" d="M471.85,-221.33C551.89,-221.33 667,-221.33 667,-221.33 667,-221.33 667,-215.43 667,-215.43"/>
<polygon fill="#7c3aed" stroke="#7c3aed" stroke-width="1.7" points="669.52,-215.43 667,-208.23 664.48,-215.43 669.52,-215.43"/>
<text text-anchor="middle" x="573" y="-216.4" font-family="DejaVu Sans" font-size="12.00">active model</text>
</g>
<!-- mission_status&#45;&gt;depth_mapper -->
<g id="edge23" class="edge">
<title>mission_status&#45;&gt;depth_mapper</title>
<path fill="none" stroke="#7c3aed" stroke-width="1.7" stroke-dasharray="5,2" d="M895.65,-336.5C1032.23,-336.5 1256,-336.5 1256,-336.5 1256,-336.5 1256,-916.68 1256,-916.68"/>
<polygon fill="#7c3aed" stroke="#7c3aed" stroke-width="1.7" points="1253.48,-916.68 1256,-923.88 1258.52,-916.68 1253.48,-916.68"/>
<text text-anchor="middle" x="1010.5" y="-701.4" font-family="DejaVu Sans" font-size="12.00">current waypoint</text>
</g>
<!-- pick_place -->
<g id="node25" class="node">
<title>pick_place</title>
<path fill="white" stroke="#334155" d="M1341,-329C1341,-329 1107,-329 1107,-329 1101,-329 1095,-323 1095,-317 1095,-317 1095,-305 1095,-305 1095,-299 1101,-293 1107,-293 1107,-293 1341,-293 1341,-293 1347,-293 1353,-299 1353,-305 1353,-305 1353,-317 1353,-317 1353,-323 1347,-329 1341,-329"/>
<text text-anchor="middle" x="1224" y="-307.5" font-family="DejaVu Sans" font-size="15.00">greenhouse_nearest_pick_place</text>
</g>
<!-- pick_target&#45;&gt;pick_place -->
<g id="edge31" class="edge">
<title>pick_target&#45;&gt;pick_place</title>
<path fill="none" stroke="#334155" stroke-width="2" d="M901,-281.03C901,-292.1 901,-303 901,-303 901,-303 1087.75,-303 1087.75,-303"/>
<polygon fill="#334155" stroke="#334155" stroke-width="2" points="1087.75,-305.52 1094.95,-303 1087.75,-300.48 1087.75,-305.52"/>
<text text-anchor="middle" x="1010.5" y="-311.4" font-family="DejaVu Sans" font-size="12.00">target pose/radius</text>
</g>
<!-- target_selection&#45;&gt;collision -->
<g id="edge28" class="edge">
<title>target_selection&#45;&gt;collision</title>
<path fill="none" stroke="#7c3aed" stroke-width="1.7" d="M926.23,-190C1244.97,-190 2023,-190 2023,-190 2023,-190 2023,-227.58 2023,-227.58"/>
<polygon fill="#7c3aed" stroke="#7c3aed" stroke-width="1.7" points="2020.48,-227.58 2023,-234.78 2025.52,-227.58 2020.48,-227.58"/>
<text text-anchor="middle" x="1437.5" y="-206.4" font-family="DejaVu Sans" font-size="12.00">exclude active target</text>
</g>
<!-- target_selection&#45;&gt;pick_place -->
<g id="edge32" class="edge">
<title>target_selection&#45;&gt;pick_place</title>
<path fill="none" stroke="#334155" stroke-width="1.7" d="M919,-208.32C919,-239.13 919,-298 919,-298 919,-298 1087.45,-298 1087.45,-298"/>
<polygon fill="#334155" stroke="#334155" stroke-width="1.7" points="1087.45,-300.52 1094.65,-298 1087.45,-295.48 1087.45,-300.52"/>
<text text-anchor="middle" x="1010.5" y="-257.4" font-family="DejaVu Sans" font-size="12.00">Gazebo model name</text>
</g>
<!-- planning_scene -->
<g id="node23" class="node">
<title>planning_scene</title>
<path fill="#ede9fe" stroke="#334155" d="M2578,-276C2578,-276 2340,-276 2340,-276 2334,-276 2328,-270 2328,-264 2328,-264 2328,-242 2328,-242 2328,-236 2334,-230 2340,-230 2340,-230 2578,-230 2578,-230 2584,-230 2590,-236 2590,-242 2590,-242 2590,-264 2590,-264 2590,-270 2584,-276 2578,-276"/>
<text text-anchor="middle" x="2459" y="-258" font-family="DejaVu Sans" font-size="15.00">/planning_scene</text>
<text text-anchor="middle" x="2459" y="-241" font-family="DejaVu Sans" font-size="15.00">/tomato_collision_scene/markers</text>
</g>
<!-- collision&#45;&gt;planning_scene -->
<g id="edge30" class="edge">
<title>collision&#45;&gt;planning_scene</title>
<path fill="none" stroke="#7c3aed" stroke-width="1.7" d="M2156.18,-253C2156.18,-253 2320.56,-253 2320.56,-253"/>
<polygon fill="#7c3aed" stroke="#7c3aed" stroke-width="1.7" points="2320.56,-255.52 2327.76,-253 2320.56,-250.48 2320.56,-255.52"/>
<text text-anchor="middle" x="2242" y="-256.4" font-family="DejaVu Sans" font-size="12.00">MoveIt + RViz objects</text>
</g>
<!-- moveit -->
<g id="node24" class="node">
<title>moveit</title>
<path fill="white" stroke="#334155" d="M1691,-344C1691,-344 1549,-344 1549,-344 1543,-344 1537,-338 1537,-332 1537,-332 1537,-310 1537,-310 1537,-304 1543,-298 1549,-298 1549,-298 1691,-298 1691,-298 1697,-298 1703,-304 1703,-310 1703,-310 1703,-332 1703,-332 1703,-338 1697,-344 1691,-344"/>
<text text-anchor="middle" x="1620" y="-326" font-family="DejaVu Sans" font-size="15.00">MoveIt move_group</text>
<text text-anchor="middle" x="1620" y="-309" font-family="DejaVu Sans" font-size="15.00">/move_action</text>
</g>
<!-- moveit&#45;&gt;controllers -->
<g id="edge34" class="edge">
<title>moveit&#45;&gt;controllers</title>
<path fill="none" stroke="#334155" stroke-width="2" d="M1620,-344.04C1620,-344.04 1620,-424.62 1620,-424.62"/>
<polygon fill="#334155" stroke="#334155" stroke-width="2" points="1617.48,-424.62 1620,-431.82 1622.52,-424.62 1617.48,-424.62"/>
</g>
<!-- pick_place&#45;&gt;gazebo -->
<g id="edge37" class="edge">
<title>pick_place&#45;&gt;gazebo</title>
<path fill="none" stroke="#334155" stroke-width="2" d="M1336,-329.21C1336,-380.14 1336,-520.33 1336,-520.33 1336,-520.33 1530.27,-520.33 1530.27,-520.33"/>
<polygon fill="#334155" stroke="#334155" stroke-width="2" points="1530.27,-522.85 1537.47,-520.33 1530.27,-517.81 1530.27,-522.85"/>
<text text-anchor="middle" x="1437.5" y="-536.4" font-family="DejaVu Sans" font-size="12.00">attach / detach</text>
</g>
<!-- pick_place&#45;&gt;controllers -->
<g id="edge35" class="edge">
<title>pick_place&#45;&gt;controllers</title>
<path fill="none" stroke="#334155" stroke-width="1.7" d="M1353.31,-321.25C1437.21,-321.25 1531,-321.25 1531,-321.25 1531,-321.25 1531,-424.5 1531,-424.5"/>
<polygon fill="#334155" stroke="#334155" stroke-width="1.7" points="1528.48,-424.5 1531,-431.7 1533.52,-424.5 1528.48,-424.5"/>
<text text-anchor="middle" x="1437.5" y="-458.4" font-family="DejaVu Sans" font-size="12.00">gripper command</text>
</g>
<!-- pick_place&#45;&gt;moveit -->
<g id="edge33" class="edge">
<title>pick_place&#45;&gt;moveit</title>
<path fill="none" stroke="#334155" stroke-width="2" d="M1353.12,-313.5C1353.12,-313.5 1529.65,-313.5 1529.65,-313.5"/>
<polygon fill="#334155" stroke="#334155" stroke-width="2" points="1529.65,-316.02 1536.85,-313.5 1529.65,-310.98 1529.65,-316.02"/>
<text text-anchor="middle" x="1437.5" y="-318.4" font-family="DejaVu Sans" font-size="12.00">OMPL + Pilz plans</text>
</g>
<!-- picked -->
<g id="node26" class="node">
<title>picked</title>
<path fill="#ede9fe" stroke="#334155" d="M1706,-271C1706,-271 1534,-271 1534,-271 1528,-271 1522,-265 1522,-259 1522,-259 1522,-247 1522,-247 1522,-241 1528,-235 1534,-235 1534,-235 1706,-235 1706,-235 1712,-235 1718,-241 1718,-247 1718,-247 1718,-259 1718,-259 1718,-265 1712,-271 1706,-271"/>
<text text-anchor="middle" x="1620" y="-249.5" font-family="DejaVu Sans" font-size="15.00">/tomato_harvest/picked</text>
</g>
<!-- pick_place&#45;&gt;picked -->
<g id="edge36" class="edge">
<title>pick_place&#45;&gt;picked</title>
<path fill="none" stroke="#334155" stroke-width="1.7" d="M1353.22,-305.75C1438.28,-305.75 1534,-305.75 1534,-305.75 1534,-305.75 1534,-278.35 1534,-278.35"/>
<polygon fill="#334155" stroke="#334155" stroke-width="1.7" points="1536.52,-278.35 1534,-271.15 1531.48,-278.35 1536.52,-278.35"/>
<text text-anchor="middle" x="1437.5" y="-262.4" font-family="DejaVu Sans" font-size="12.00">completion event</text>
</g>
<!-- picked&#45;&gt;collision -->
<g id="edge29" class="edge">
<title>picked&#45;&gt;collision</title>
<path fill="none" stroke="#7c3aed" stroke-width="1.7" d="M1718.07,-253C1718.07,-253 1882.54,-253 1882.54,-253"/>
<polygon fill="#7c3aed" stroke="#7c3aed" stroke-width="1.7" points="1882.54,-255.52 1889.74,-253 1882.54,-250.48 1882.54,-255.52"/>
<text text-anchor="middle" x="1804" y="-256.4" font-family="DejaVu Sans" font-size="12.00">remove picked object</text>
</g>
</g>
</svg>
