<?xml version="1.0" encoding="UTF-8" standalone="no"?>
<!DOCTYPE svg PUBLIC "-//W3C//DTD SVG 1.1//EN"
 "http://www.w3.org/Graphics/SVG/1.1/DTD/svg11.dtd">
<!-- Generated by graphviz version 2.43.0 (0)
 -->
<!-- Title: SystemArchitecture Pages: 1 -->
<svg width="7307pt" height="2977pt"
 viewBox="0.00 0.00 2391.40 974.40" xmlns="http://www.w3.org/2000/svg" xmlns:xlink="http://www.w3.org/1999/xlink">
<g id="graph0" class="graph" transform="scale(3.06 3.06) rotate(0) translate(25.2 949.2)">
<title>SystemArchitecture</title>
<polygon fill="white" stroke="transparent" points="-25.2,25.2 -25.2,-949.2 2366.2,-949.2 2366.2,25.2 -25.2,25.2"/>
<text text-anchor="start" x="948.5" y="-896.1" font-family="DejaVu Sans" font-weight="bold" font-size="28.00">Overall System Architecture</text>
<text text-anchor="start" x="942.5" y="-869.7" font-family="DejaVu Sans" font-size="16.00" fill="#475569">Five&#45;layer ROS2/Gazebo greenhouse harvesting pipeline</text>
<g id="clust1" class="cluster">
<title>cluster_layer1</title>
<path fill="#eff8ff" stroke="#bae6fd" stroke-width="2" d="M826,-668C826,-668 1620,-668 1620,-668 1626,-668 1632,-674 1632,-680 1632,-680 1632,-839 1632,-839 1632,-845 1626,-851 1620,-851 1620,-851 826,-851 826,-851 820,-851 814,-845 814,-839 814,-839 814,-680 814,-680 814,-674 820,-668 826,-668"/>
<text text-anchor="start" x="997" y="-828" font-family="DejaVu Sans" font-weight="bold" font-size="20.00">Layer 1 &#45; Simulation and Robot Platform</text>
</g>
<g id="clust3" class="cluster">
<title>cluster_layer2</title>
<path fill="#f0fdf4" stroke="#bbf7d0" stroke-width="2" d="M770,-448C770,-448 1405,-448 1405,-448 1411,-448 1417,-454 1417,-460 1417,-460 1417,-619 1417,-619 1417,-625 1411,-631 1405,-631 1405,-631 770,-631 770,-631 764,-631 758,-625 758,-619 758,-619 758,-460 758,-460 758,-454 764,-448 770,-448"/>
<text text-anchor="start" x="854.5" y="-608" font-family="DejaVu Sans" font-weight="bold" font-size="20.00">Layer 2 &#45; ROS2 Interface and Robot State</text>
</g>
<g id="clust5" class="cluster">
<title>cluster_layer3</title>
<path fill="#fff7ed" stroke="#fed7aa" stroke-width="2" d="M20,-228C20,-228 963,-228 963,-228 969,-228 975,-234 975,-240 975,-240 975,-399 975,-399 975,-405 969,-411 963,-411 963,-411 20,-411 20,-411 14,-411 8,-405 8,-399 8,-399 8,-240 8,-240 8,-234 14,-228 20,-228"/>
<text text-anchor="start" x="283.5" y="-388" font-family="DejaVu Sans" font-weight="bold" font-size="20.00">Layer 3 &#45; Navigation and Localization</text>
</g>
<g id="clust7" class="cluster">
<title>cluster_layer4</title>
<path fill="#fdf2f8" stroke="#fbcfe8" stroke-width="2" d="M1011,-228C1011,-228 1881,-228 1881,-228 1887,-228 1893,-234 1893,-240 1893,-240 1893,-399 1893,-399 1893,-405 1887,-411 1881,-411 1881,-411 1011,-411 1011,-411 1005,-411 999,-405 999,-399 999,-399 999,-240 999,-240 999,-234 1005,-228 1011,-228"/>
<text text-anchor="start" x="1212" y="-388" font-family="DejaVu Sans" font-weight="bold" font-size="20.00">Layer 4 &#45; Perception and Tomato Mapping</text>
</g>
<g id="clust9" class="cluster">
<title>cluster_layer5</title>
<path fill="#f5f3ff" stroke="#ddd6fe" stroke-width="2" d="M1043,-8C1043,-8 2058,-8 2058,-8 2064,-8 2070,-14 2070,-20 2070,-20 2070,-179 2070,-179 2070,-185 2064,-191 2058,-191 2058,-191 1043,-191 1043,-191 1037,-191 1031,-185 1031,-179 1031,-179 1031,-20 1031,-20 1031,-14 1037,-8 1043,-8"/>
<text text-anchor="start" x="1305.5" y="-168" font-family="DejaVu Sans" font-weight="bold" font-size="20.00">Layer 5 &#45; Mission, Planning, and Harvesting</text>
</g>
<!-- sim_gazebo -->
<g id="node1" class="node">
<title>sim_gazebo</title>
<polygon fill="#0284c7" stroke="transparent" points="1446,-729.5 1446,-766.5 1624,-766.5 1624,-729.5 1446,-729.5"/>
<polygon fill="none" stroke="#bae6fd" points="1446,-729.5 1446,-766.5 1624,-766.5 1624,-729.5 1446,-729.5"/>
<text text-anchor="start" x="1460.5" y="-745.5" font-family="DejaVu Sans" font-weight="bold" font-size="15.00" fill="white">Gazebo Harmonic</text>
<polygon fill="white" stroke="transparent" points="1446,-675.5 1446,-729.5 1624,-729.5 1624,-675.5 1446,-675.5"/>
<polygon fill="none" stroke="#bae6fd" points="1446,-675.5 1446,-729.5 1624,-729.5 1624,-675.5 1446,-675.5"/>
<text text-anchor="start" x="1467.5" y="-707.5" font-family="DejaVu Sans" font-size="15.00">greenhouse world</text>
<text text-anchor="start" x="1456" y="-690.5" font-family="DejaVu Sans" font-size="15.00">physics and contacts</text>
</g>
<!-- ros_bridge -->
<g id="node5" class="node">
<title>ros_bridge</title>
<polygon fill="#16a34a" stroke="transparent" points="1019,-509.5 1019,-546.5 1193,-546.5 1193,-509.5 1019,-509.5"/>
<polygon fill="none" stroke="#bbf7d0" points="1019,-509.5 1019,-546.5 1193,-546.5 1193,-509.5 1019,-509.5"/>
<text text-anchor="start" x="1047.5" y="-525.5" font-family="DejaVu Sans" font-weight="bold" font-size="15.00" fill="white">ros_gz_bridge</text>
<polygon fill="white" stroke="transparent" points="1019,-455.5 1019,-509.5 1193,-509.5 1193,-455.5 1019,-455.5"/>
<polygon fill="none" stroke="#bbf7d0" points="1019,-455.5 1019,-509.5 1193,-509.5 1193,-455.5 1019,-455.5"/>
<text text-anchor="start" x="1029" y="-487.5" font-family="DejaVu Sans" font-size="15.00">/clock, image, depth</text>
<text text-anchor="start" x="1045" y="-470.5" font-family="DejaVu Sans" font-size="15.00">scan, IMU topics</text>
</g>
<!-- sim_gazebo&#45;&gt;ros_bridge -->
<g id="edge1" class="edge">
<title>sim_gazebo&#45;&gt;ros_bridge</title>
<path fill="none" stroke="#0284c7" stroke-width="2.4" d="M1445.95,-678C1433.58,-672.1 1425,-668 1425,-668 1425,-668 1148,-653 1148,-653 1148,-653 1132.69,-598.14 1120.56,-554.67"/>
<polygon fill="#0284c7" stroke="#0284c7" stroke-width="2.4" points="1123.03,-553.77 1118.49,-547.25 1117.98,-555.18 1123.03,-553.77"/>
<text text-anchor="middle" x="1227" y="-642.6" font-family="DejaVu Sans" font-size="13.00">sensor and world topics</text>
</g>
<!-- sim_robot -->
<g id="node2" class="node">
<title>sim_robot</title>
<polygon fill="#0284c7" stroke="transparent" points="1221,-729.5 1221,-766.5 1406,-766.5 1406,-729.5 1221,-729.5"/>
<polygon fill="none" stroke="#bae6fd" points="1221,-729.5 1221,-766.5 1406,-766.5 1406,-729.5 1221,-729.5"/>
<text text-anchor="start" x="1231" y="-745.5" font-family="DejaVu Sans" font-weight="bold" font-size="15.00" fill="white">Mobile Manipulator</text>
<polygon fill="white" stroke="transparent" points="1221,-675.5 1221,-729.5 1406,-729.5 1406,-675.5 1221,-675.5"/>
<polygon fill="none" stroke="#bae6fd" points="1221,-675.5 1221,-729.5 1406,-729.5 1406,-675.5 1221,-675.5"/>
<text text-anchor="start" x="1264.5" y="-707.5" font-family="DejaVu Sans" font-size="15.00">Panther base</text>
<text text-anchor="start" x="1254.5" y="-690.5" font-family="DejaVu Sans" font-size="15.00">Franka FR3 arm</text>
</g>
<!-- ros_control -->
<g id="node6" class="node">
<title>ros_control</title>
<polygon fill="#16a34a" stroke="transparent" points="1233,-509.5 1233,-546.5 1409,-546.5 1409,-509.5 1233,-509.5"/>
<polygon fill="none" stroke="#bbf7d0" points="1233,-509.5 1233,-546.5 1409,-546.5 1409,-509.5 1233,-509.5"/>
<text text-anchor="start" x="1268" y="-525.5" font-family="DejaVu Sans" font-weight="bold" font-size="15.00" fill="white">ros2_control</text>
<polygon fill="white" stroke="transparent" points="1233,-455.5 1233,-509.5 1409,-509.5 1409,-455.5 1233,-455.5"/>
<polygon fill="none" stroke="#bbf7d0" points="1233,-455.5 1233,-509.5 1409,-509.5 1409,-455.5 1233,-455.5"/>
<text text-anchor="start" x="1263.5" y="-487.5" font-family="DejaVu Sans" font-size="15.00">drive controller</text>
<text text-anchor="start" x="1243" y="-470.5" font-family="DejaVu Sans" font-size="15.00">FR3 arm and gripper</text>
</g>
<!-- sim_robot&#45;&gt;ros_control -->
<g id="edge2" class="edge">
<title>sim_robot&#45;&gt;ros_control</title>
<path fill="none" stroke="#0284c7" stroke-width="2.4" d="M1314.64,-675.86C1315.93,-640.74 1317.73,-591.73 1319.08,-554.77"/>
<polygon fill="#0284c7" stroke="#0284c7" stroke-width="2.4" points="1321.71,-554.67 1319.36,-547.08 1316.47,-554.48 1321.71,-554.67"/>
<text text-anchor="middle" x="1406.5" y="-642.6" font-family="DejaVu Sans" font-size="13.00">joint states and commands</text>
</g>
<!-- sim_sensors -->
<g id="node3" class="node">
<title>sim_sensors</title>
<polygon fill="#0284c7" stroke="transparent" points="1048,-729.5 1048,-766.5 1180,-766.5 1180,-729.5 1048,-729.5"/>
<polygon fill="none" stroke="#bae6fd" points="1048,-729.5 1048,-766.5 1180,-766.5 1180,-729.5 1048,-729.5"/>
<text text-anchor="start" x="1080" y="-745.5" font-family="DejaVu Sans" font-weight="bold" font-size="15.00" fill="white">Sensors</text>
<polygon fill="white" stroke="transparent" points="1048,-675.5 1048,-729.5 1180,-729.5 1180,-675.5 1048,-675.5"/>
<polygon fill="none" stroke="#bae6fd" points="1048,-675.5 1048,-729.5 1180,-729.5 1180,-675.5 1048,-675.5"/>
<text text-anchor="start" x="1059.5" y="-707.5" font-family="DejaVu Sans" font-size="15.00">RGB&#45;D camera</text>
<text text-anchor="start" x="1058" y="-690.5" font-family="DejaVu Sans" font-size="15.00">LiDAR and IMU</text>
</g>
<!-- sim_sensors&#45;&gt;ros_bridge -->
<g id="edge3" class="edge">
<title>sim_sensors&#45;&gt;ros_bridge</title>
<path fill="none" stroke="#0284c7" stroke-width="2" d="M1107.39,-675.85C1105.53,-663.3 1104,-653 1104,-653 1104,-653 1104,-639 1104,-639 1104,-639 1104.67,-593.3 1105.23,-554.79"/>
<polygon fill="#0284c7" stroke="#0284c7" stroke-width="2" points="1107.86,-554.73 1105.35,-547.2 1102.61,-554.66 1107.86,-554.73"/>
</g>
<!-- sim_env -->
<g id="node4" class="node">
<title>sim_env</title>
<polygon fill="#0284c7" stroke="transparent" points="822,-729.5 822,-766.5 1008,-766.5 1008,-729.5 822,-729.5"/>
<polygon fill="none" stroke="#bae6fd" points="822,-729.5 822,-766.5 1008,-766.5 1008,-729.5 822,-729.5"/>
<text text-anchor="start" x="838" y="-745.5" font-family="DejaVu Sans" font-weight="bold" font-size="15.00" fill="white">Crop Environment</text>
<polygon fill="white" stroke="transparent" points="822,-675.5 822,-729.5 1008,-729.5 1008,-675.5 822,-675.5"/>
<polygon fill="none" stroke="#bae6fd" points="822,-675.5 822,-729.5 1008,-729.5 1008,-675.5 822,-675.5"/>
<text text-anchor="start" x="853" y="-707.5" font-family="DejaVu Sans" font-size="15.00">B/C tomato rows</text>
<text text-anchor="start" x="832" y="-690.5" font-family="DejaVu Sans" font-size="15.00">good and bad baskets</text>
</g>
<!-- nav_local -->
<g id="node9" class="node">
<title>nav_local</title>
<polygon fill="#ea580c" stroke="transparent" points="223,-289.5 223,-326.5 399,-326.5 399,-289.5 223,-289.5"/>
<polygon fill="none" stroke="#fed7aa" points="223,-289.5 223,-326.5 399,-326.5 399,-289.5 223,-289.5"/>
<text text-anchor="start" x="259.5" y="-305.5" font-family="DejaVu Sans" font-weight="bold" font-size="15.00" fill="white">Localization</text>
<polygon fill="white" stroke="transparent" points="223,-235.5 223,-289.5 399,-289.5 399,-235.5 223,-235.5"/>
<polygon fill="none" stroke="#fed7aa" points="223,-235.5 223,-289.5 399,-289.5 399,-235.5 223,-235.5"/>
<text text-anchor="start" x="255" y="-267.5" font-family="DejaVu Sans" font-size="15.00">AMCL particles</text>
<text text-anchor="start" x="233" y="-250.5" font-family="DejaVu Sans" font-size="15.00">EKF odometry fusion</text>
</g>
<!-- ros_bridge&#45;&gt;nav_local -->
<g id="edge4" class="edge">
<title>ros_bridge&#45;&gt;nav_local</title>
<path fill="none" stroke="#16a34a" stroke-width="2.2" d="M1018.82,-458.12C1006.54,-452.15 998,-448 998,-448 998,-448 396,-433 396,-433 396,-433 364.63,-377.46 340.01,-333.86"/>
<polygon fill="#16a34a" stroke="#16a34a" stroke-width="2.2" points="342.25,-332.49 336.27,-327.25 337.68,-335.07 342.25,-332.49"/>
<text text-anchor="middle" x="452" y="-422.6" font-family="DejaVu Sans" font-size="13.00">scan, IMU, odom</text>
</g>
<!-- perc_yolo -->
<g id="node12" class="node">
<title>perc_yolo</title>
<polygon fill="#db2777" stroke="transparent" points="1314,-289.5 1314,-326.5 1461,-326.5 1461,-289.5 1314,-289.5"/>
<polygon fill="none" stroke="#fbcfe8" points="1314,-289.5 1314,-326.5 1461,-326.5 1461,-289.5 1314,-289.5"/>
<text text-anchor="start" x="1324" y="-305.5" font-family="DejaVu Sans" font-weight="bold" font-size="15.00" fill="white">YOLO Detector</text>
<polygon fill="white" stroke="transparent" points="1314,-235.5 1314,-289.5 1461,-289.5 1461,-235.5 1314,-235.5"/>
<polygon fill="none" stroke="#fbcfe8" points="1314,-235.5 1314,-289.5 1461,-289.5 1461,-235.5 1314,-235.5"/>
<text text-anchor="start" x="1325" y="-267.5" font-family="DejaVu Sans" font-size="15.00">bbox, class label</text>
<text text-anchor="start" x="1324" y="-250.5" font-family="DejaVu Sans" font-size="15.00">confidence score</text>
</g>
<!-- ros_bridge&#45;&gt;perc_yolo -->
<g id="edge9" class="edge">
<title>ros_bridge&#45;&gt;perc_yolo</title>
<path fill="none" stroke="#db2777" stroke-width="2.2" d="M1193.12,-457.75C1204.89,-451.98 1213,-448 1213,-448 1213,-448 1336,-433 1336,-433 1336,-433 1354.67,-377.91 1369.41,-334.4"/>
<polygon fill="#db2777" stroke="#db2777" stroke-width="2.2" points="1371.92,-335.19 1371.84,-327.25 1366.94,-333.51 1371.92,-335.19"/>
<text text-anchor="middle" x="1378" y="-422.6" font-family="DejaVu Sans" font-size="13.00">RGB image</text>
</g>
<!-- perc_depth -->
<g id="node13" class="node">
<title>perc_depth</title>
<polygon fill="#db2777" stroke="transparent" points="1007,-289.5 1007,-326.5 1205,-326.5 1205,-289.5 1007,-289.5"/>
<polygon fill="none" stroke="#fbcfe8" points="1007,-289.5 1007,-326.5 1205,-326.5 1205,-289.5 1007,-289.5"/>
<text text-anchor="start" x="1017" y="-305.5" font-family="DejaVu Sans" font-weight="bold" font-size="15.00" fill="white">TomatoDepthMapper</text>
<polygon fill="white" stroke="transparent" points="1007,-235.5 1007,-289.5 1205,-289.5 1205,-235.5 1007,-235.5"/>
<polygon fill="none" stroke="#fbcfe8" points="1007,-235.5 1007,-289.5 1205,-289.5 1205,-235.5 1007,-235.5"/>
<text text-anchor="start" x="1041" y="-267.5" font-family="DejaVu Sans" font-size="15.00">RGB&#45;D projection</text>
<text text-anchor="start" x="1036.5" y="-250.5" font-family="DejaVu Sans" font-size="15.00">3D tomato centers</text>
</g>
<!-- ros_bridge&#45;&gt;perc_depth -->
<g id="edge10" class="edge">
<title>ros_bridge&#45;&gt;perc_depth</title>
<path fill="none" stroke="#db2777" stroke-width="2.2" d="M1106,-455.86C1106,-420.74 1106,-371.73 1106,-334.77"/>
<polygon fill="#db2777" stroke="#db2777" stroke-width="2.2" points="1108.63,-334.58 1106,-327.08 1103.38,-334.58 1108.63,-334.58"/>
<text text-anchor="middle" x="1174" y="-422.6" font-family="DejaVu Sans" font-size="13.00">depth + CameraInfo</text>
</g>
<!-- ros_tf -->
<g id="node7" class="node">
<title>ros_tf</title>
<polygon fill="#16a34a" stroke="transparent" points="766,-509.5 766,-546.5 979,-546.5 979,-509.5 766,-509.5"/>
<polygon fill="none" stroke="#bbf7d0" points="766,-509.5 766,-546.5 979,-546.5 979,-509.5 766,-509.5"/>
<text text-anchor="start" x="785" y="-525.5" font-family="DejaVu Sans" font-weight="bold" font-size="15.00" fill="white">Robot State and TF2</text>
<polygon fill="white" stroke="transparent" points="766,-455.5 766,-509.5 979,-509.5 979,-455.5 766,-455.5"/>
<polygon fill="none" stroke="#bbf7d0" points="766,-455.5 766,-509.5 979,-509.5 979,-455.5 766,-455.5"/>
<text text-anchor="start" x="799.5" y="-487.5" font-family="DejaVu Sans" font-size="15.00">URDF/Xacro frames</text>
<text text-anchor="start" x="776" y="-470.5" font-family="DejaVu Sans" font-size="15.00">map, odom, base, camera</text>
</g>
<!-- ros_tf&#45;&gt;nav_local -->
<g id="edge5" class="edge">
<title>ros_tf&#45;&gt;nav_local</title>
<path fill="none" stroke="#16a34a" stroke-width="2" d="M765.43,-489.47C580.57,-470.33 220,-433 220,-433 220,-433 220,-419 220,-419 220,-419 250.98,-372.54 276.78,-333.83"/>
<polygon fill="#16a34a" stroke="#16a34a" stroke-width="2" points="279.23,-334.89 281.2,-327.2 274.86,-331.98 279.23,-334.89"/>
</g>
<!-- ros_tf&#45;&gt;perc_depth -->
<g id="edge11" class="edge">
<title>ros_tf&#45;&gt;perc_depth</title>
<path fill="none" stroke="#db2777" stroke-width="2" d="M765.31,-480.16C661.08,-460.28 518,-433 518,-433 518,-433 518,-419 518,-419 518,-419 985,-411 985,-411 985,-411 1024.71,-368.83 1058.63,-332.8"/>
<polygon fill="#db2777" stroke="#db2777" stroke-width="2" points="1060.79,-334.34 1064.02,-327.08 1056.97,-330.74 1060.79,-334.34"/>
<text text-anchor="middle" x="578" y="-422.6" font-family="DejaVu Sans" font-size="13.00">camera transform</text>
</g>
<!-- nav_map -->
<g id="node8" class="node">
<title>nav_map</title>
<polygon fill="#ea580c" stroke="transparent" points="439,-289.5 439,-326.5 601,-326.5 601,-289.5 439,-289.5"/>
<polygon fill="none" stroke="#fed7aa" points="439,-289.5 439,-326.5 601,-326.5 601,-289.5 439,-289.5"/>
<text text-anchor="start" x="458" y="-305.5" font-family="DejaVu Sans" font-weight="bold" font-size="15.00" fill="white">SLAM and Map</text>
<polygon fill="white" stroke="transparent" points="439,-235.5 439,-289.5 601,-289.5 601,-235.5 439,-235.5"/>
<polygon fill="none" stroke="#fed7aa" points="439,-235.5 439,-289.5 601,-289.5 601,-235.5 439,-235.5"/>
<text text-anchor="start" x="449" y="-267.5" font-family="DejaVu Sans" font-size="15.00">SLAM Toolbox map</text>
<text text-anchor="start" x="467" y="-250.5" font-family="DejaVu Sans" font-size="15.00">keepout mask</text>
</g>
<!-- nav_nav2 -->
<g id="node10" class="node">
<title>nav_nav2</title>
<polygon fill="#ea580c" stroke="transparent" points="784,-289.5 784,-326.5 967,-326.5 967,-289.5 784,-289.5"/>
<polygon fill="none" stroke="#fed7aa" points="784,-289.5 784,-326.5 967,-326.5 967,-289.5 784,-289.5"/>
<text text-anchor="start" x="854" y="-305.5" font-family="DejaVu Sans" font-weight="bold" font-size="15.00" fill="white">Nav2</text>
<polygon fill="white" stroke="transparent" points="784,-235.5 784,-289.5 967,-289.5 967,-235.5 784,-235.5"/>
<polygon fill="none" stroke="#fed7aa" points="784,-235.5 784,-289.5 967,-289.5 967,-235.5 784,-235.5"/>
<text text-anchor="start" x="806" y="-267.5" font-family="DejaVu Sans" font-size="15.00">planner, controller</text>
<text text-anchor="start" x="794" y="-250.5" font-family="DejaVu Sans" font-size="15.00">local/global costmaps</text>
</g>
<!-- nav_map&#45;&gt;nav_nav2 -->
<g id="edge6" class="edge">
<title>nav_map&#45;&gt;nav_nav2</title>
<path fill="none" stroke="#ea580c" stroke-width="2.3" d="M601.44,-281.5C653.25,-281.5 720.69,-281.5 775.64,-281.5"/>
<polygon fill="#ea580c" stroke="#ea580c" stroke-width="2.3" points="775.81,-284.13 783.31,-281.5 775.81,-278.88 775.81,-284.13"/>
<text text-anchor="middle" x="692.25" y="-288.1" font-family="DejaVu Sans" font-size="13.00">map + keepout mask</text>
</g>
<!-- nav_local&#45;&gt;nav_nav2 -->
<g id="edge7" class="edge">
<title>nav_local&#45;&gt;nav_nav2</title>
<path fill="none" stroke="#ea580c" stroke-width="2.3" d="M353.68,-327.15C383.87,-359.43 419,-397 419,-397 419,-397 621,-397 621,-397 621,-397 705.04,-358.79 776.43,-326.32"/>
<polygon fill="#ea580c" stroke="#ea580c" stroke-width="2.3" points="777.56,-328.69 783.3,-323.2 775.39,-323.91 777.56,-328.69"/>
<text text-anchor="middle" x="696" y="-422.6" font-family="DejaVu Sans" font-size="13.00">localized pose</text>
</g>
<!-- harv_mission -->
<g id="node16" class="node">
<title>harv_mission</title>
<polygon fill="#7c3aed" stroke="transparent" points="1039,-69.5 1039,-106.5 1213,-106.5 1213,-69.5 1039,-69.5"/>
<polygon fill="none" stroke="#ddd6fe" points="1039,-69.5 1039,-106.5 1213,-106.5 1213,-69.5 1039,-69.5"/>
<text text-anchor="start" x="1056.5" y="-85.5" font-family="DejaVu Sans" font-weight="bold" font-size="15.00" fill="white">MissionManager</text>
<polygon fill="white" stroke="transparent" points="1039,-15.5 1039,-69.5 1213,-69.5 1213,-15.5 1039,-15.5"/>
<polygon fill="none" stroke="#ddd6fe" points="1039,-15.5 1039,-69.5 1213,-69.5 1213,-15.5 1039,-15.5"/>
<text text-anchor="start" x="1049" y="-47.5" font-family="DejaVu Sans" font-size="15.00">survey/harvest state</text>
<text text-anchor="start" x="1053.5" y="-30.5" font-family="DejaVu Sans" font-size="15.00">route orchestration</text>
</g>
<!-- nav_nav2&#45;&gt;harv_mission -->
<g id="edge15" class="edge">
<title>nav_nav2&#45;&gt;harv_mission</title>
<path fill="none" stroke="#7c3aed" stroke-width="2.4" d="M926.4,-235.86C967.85,-199.86 1026.11,-149.26 1068.99,-112.01"/>
<polygon fill="#7c3aed" stroke="#7c3aed" stroke-width="2.4" points="1070.73,-113.98 1074.67,-107.08 1067.29,-110.02 1070.73,-113.98"/>
<text text-anchor="middle" x="1025" y="-202.6" font-family="DejaVu Sans" font-size="13.00">waypoint progress</text>
</g>
<!-- nav_route -->
<g id="node11" class="node">
<title>nav_route</title>
<polygon fill="#ea580c" stroke="transparent" points="17,-289.5 17,-326.5 182,-326.5 182,-289.5 17,-289.5"/>
<polygon fill="none" stroke="#fed7aa" points="17,-289.5 17,-326.5 182,-326.5 182,-289.5 17,-289.5"/>
<text text-anchor="start" x="27" y="-305.5" font-family="DejaVu Sans" font-weight="bold" font-size="15.00" fill="white">Route Waypoints</text>
<polygon fill="white" stroke="transparent" points="17,-235.5 17,-289.5 182,-289.5 182,-235.5 17,-235.5"/>
<polygon fill="none" stroke="#fed7aa" points="17,-235.5 17,-289.5 182,-289.5 182,-235.5 17,-235.5"/>
<text text-anchor="start" x="41" y="-267.5" font-family="DejaVu Sans" font-size="15.00">B/C plant scans</text>
<text text-anchor="start" x="39" y="-250.5" font-family="DejaVu Sans" font-size="15.00">pick&#45;front poses</text>
</g>
<!-- nav_route&#45;&gt;nav_nav2 -->
<g id="edge8" class="edge">
<title>nav_route&#45;&gt;nav_nav2</title>
<path fill="none" stroke="#ea580c" stroke-width="2" d="M140.1,-327.15C169.17,-359.43 203,-397 203,-397 203,-397 621,-397 621,-397 621,-397 705.04,-358.79 776.43,-326.32"/>
<polygon fill="#ea580c" stroke="#ea580c" stroke-width="2" points="777.56,-328.69 783.3,-323.2 775.39,-323.91 777.56,-328.69"/>
<text text-anchor="middle" x="271" y="-422.6" font-family="DejaVu Sans" font-size="13.00">waypoint goals</text>
</g>
<!-- perc_yolo&#45;&gt;perc_depth -->
<g id="edge12" class="edge">
<title>perc_yolo&#45;&gt;perc_depth</title>
<path fill="none" stroke="#db2777" stroke-width="2" d="M1313.11,-281.5C1282.39,-281.5 1246.14,-281.5 1212.62,-281.5"/>
<polygon fill="#db2777" stroke="#db2777" stroke-width="2" points="1212.57,-278.88 1205.07,-281.5 1212.57,-284.13 1212.57,-278.88"/>
<text text-anchor="middle" x="1259.25" y="-288.1" font-family="DejaVu Sans" font-size="13.00">bbox JSON</text>
</g>
<!-- perc_map -->
<g id="node14" class="node">
<title>perc_map</title>
<polygon fill="#db2777" stroke="transparent" points="1501,-289.5 1501,-326.5 1648,-326.5 1648,-289.5 1501,-289.5"/>
<polygon fill="none" stroke="#fbcfe8" points="1501,-289.5 1501,-326.5 1648,-326.5 1648,-289.5 1501,-289.5"/>
<text text-anchor="start" x="1523" y="-305.5" font-family="DejaVu Sans" font-weight="bold" font-size="15.00" fill="white">Tomato Map</text>
<polygon fill="white" stroke="transparent" points="1501,-235.5 1501,-289.5 1648,-289.5 1648,-235.5 1501,-235.5"/>
<polygon fill="none" stroke="#fbcfe8" points="1501,-235.5 1501,-289.5 1648,-289.5 1648,-235.5 1501,-235.5"/>
<text text-anchor="start" x="1511" y="-267.5" font-family="DejaVu Sans" font-size="15.00">/tomato_map/list</text>
<text text-anchor="start" x="1515.5" y="-250.5" font-family="DejaVu Sans" font-size="15.00">merged records</text>
</g>
<!-- perc_depth&#45;&gt;perc_map -->
<g id="edge13" class="edge">
<title>perc_depth&#45;&gt;perc_map</title>
<path fill="none" stroke="#db2777" stroke-width="2.4" d="M1179.91,-327.15C1232.18,-359.43 1293,-397 1293,-397 1293,-397 1480,-397 1480,-397 1480,-397 1506.87,-363.98 1531.88,-333.25"/>
<polygon fill="#db2777" stroke="#db2777" stroke-width="2.4" points="1534.15,-334.62 1536.85,-327.15 1530.08,-331.31 1534.15,-334.62"/>
<text text-anchor="middle" x="1290" y="-422.6" font-family="DejaVu Sans" font-size="13.00">3D records</text>
</g>
<!-- perc_ui -->
<g id="node15" class="node">
<title>perc_ui</title>
<polygon fill="#db2777" stroke="transparent" points="1727,-289.5 1727,-326.5 1885,-326.5 1885,-289.5 1727,-289.5"/>
<polygon fill="none" stroke="#fbcfe8" points="1727,-289.5 1727,-326.5 1885,-326.5 1885,-289.5 1727,-289.5"/>
<text text-anchor="start" x="1751.5" y="-305.5" font-family="DejaVu Sans" font-weight="bold" font-size="15.00" fill="white">Visualization</text>
<polygon fill="white" stroke="transparent" points="1727,-235.5 1727,-289.5 1885,-289.5 1885,-235.5 1727,-235.5"/>
<polygon fill="none" stroke="#fbcfe8" points="1727,-235.5 1727,-289.5 1885,-289.5 1885,-235.5 1727,-235.5"/>
<text text-anchor="start" x="1760" y="-267.5" font-family="DejaVu Sans" font-size="15.00">bbox viewer</text>
<text text-anchor="start" x="1737" y="-250.5" font-family="DejaVu Sans" font-size="15.00">tomato map panel</text>
</g>
<!-- perc_map&#45;&gt;perc_ui -->
<g id="edge14" class="edge">
<title>perc_map&#45;&gt;perc_ui</title>
<path fill="none" stroke="#db2777" stroke-width="1.7" stroke-dasharray="5,2" d="M1647.6,-281.5C1649.97,-281.5 1651.33,-281.5 1651.33,-281.5 1651.33,-281.5 1698.24,-281.5 1718.99,-281.5"/>
<polygon fill="#db2777" stroke="#db2777" stroke-width="1.7" points="1719.26,-284.13 1726.76,-281.5 1719.26,-278.88 1719.26,-284.13"/>
</g>
<!-- harv_scene -->
<g id="node17" class="node">
<title>harv_scene</title>
<polygon fill="#7c3aed" stroke="transparent" points="1554,-69.5 1554,-106.5 1728,-106.5 1728,-69.5 1554,-69.5"/>
<polygon fill="none" stroke="#ddd6fe" points="1554,-69.5 1554,-106.5 1728,-106.5 1728,-69.5 1554,-69.5"/>
<text text-anchor="start" x="1576" y="-85.5" font-family="DejaVu Sans" font-weight="bold" font-size="15.00" fill="white">Collision Scene</text>
<polygon fill="white" stroke="transparent" points="1554,-15.5 1554,-69.5 1728,-69.5 1728,-15.5 1554,-15.5"/>
<polygon fill="none" stroke="#ddd6fe" points="1554,-15.5 1554,-69.5 1728,-69.5 1728,-15.5 1554,-15.5"/>
<text text-anchor="start" x="1586.5" y="-47.5" font-family="DejaVu Sans" font-size="15.00">MoveIt objects</text>
<text text-anchor="start" x="1564" y="-30.5" font-family="DejaVu Sans" font-size="15.00">RViz tomato markers</text>
</g>
<!-- perc_map&#45;&gt;harv_scene -->
<g id="edge17" class="edge">
<title>perc_map&#45;&gt;harv_scene</title>
<path fill="none" stroke="#7c3aed" stroke-width="2" d="M1630.22,-235.85C1646.03,-223.3 1659,-213 1659,-213 1659,-213 1659,-199 1659,-199 1659,-199 1652.97,-153.3 1647.89,-114.79"/>
<polygon fill="#7c3aed" stroke="#7c3aed" stroke-width="2" points="1650.48,-114.29 1646.89,-107.2 1645.27,-114.97 1650.48,-114.29"/>
<text text-anchor="middle" x="1714.5" y="-202.6" font-family="DejaVu Sans" font-size="13.00">collision spheres</text>
</g>
<!-- harv_target -->
<g id="node18" class="node">
<title>harv_target</title>
<polygon fill="#7c3aed" stroke="transparent" points="1329,-69.5 1329,-106.5 1514,-106.5 1514,-69.5 1329,-69.5"/>
<polygon fill="none" stroke="#ddd6fe" points="1329,-69.5 1329,-106.5 1514,-106.5 1514,-69.5 1329,-69.5"/>
<text text-anchor="start" x="1352" y="-85.5" font-family="DejaVu Sans" font-weight="bold" font-size="15.00" fill="white">Target Selection</text>
<polygon fill="white" stroke="transparent" points="1329,-15.5 1329,-69.5 1514,-69.5 1514,-15.5 1329,-15.5"/>
<polygon fill="none" stroke="#ddd6fe" points="1329,-15.5 1329,-69.5 1514,-69.5 1514,-15.5 1329,-15.5"/>
<text text-anchor="start" x="1339" y="-47.5" font-family="DejaVu Sans" font-size="15.00">ripe vs. rotten routing</text>
<text text-anchor="start" x="1364" y="-30.5" font-family="DejaVu Sans" font-size="15.00">green rejection</text>
</g>
<!-- perc_map&#45;&gt;harv_target -->
<g id="edge16" class="edge">
<title>perc_map&#45;&gt;harv_target</title>
<path fill="none" stroke="#7c3aed" stroke-width="2.4" d="M1500.4,-239.39C1488.5,-232.75 1480,-228 1480,-228 1480,-228 1412,-213 1412,-213 1412,-213 1412,-199 1412,-199 1412,-199 1415.01,-153.3 1417.55,-114.79"/>
<polygon fill="#7c3aed" stroke="#7c3aed" stroke-width="2.4" points="1420.18,-114.85 1418.05,-107.2 1414.94,-114.51 1420.18,-114.85"/>
<text text-anchor="middle" x="1479" y="-202.6" font-family="DejaVu Sans" font-size="13.00">candidate tomatoes</text>
</g>
<!-- harv_mission&#45;&gt;harv_target -->
<g id="edge18" class="edge">
<title>harv_mission&#45;&gt;harv_target</title>
<path fill="none" stroke="#7c3aed" stroke-width="2" d="M1213.31,-61.5C1246.96,-61.5 1285.64,-61.5 1320.44,-61.5"/>
<polygon fill="#7c3aed" stroke="#7c3aed" stroke-width="2" points="1320.76,-64.13 1328.26,-61.5 1320.76,-58.88 1320.76,-64.13"/>
<text text-anchor="middle" x="1270.75" y="-68.1" font-family="DejaVu Sans" font-size="13.00">pick trigger</text>
</g>
<!-- harv_motion -->
<g id="node19" class="node">
<title>harv_motion</title>
<polygon fill="#7c3aed" stroke="transparent" points="1869,-69.5 1869,-106.5 2062,-106.5 2062,-69.5 1869,-69.5"/>
<polygon fill="none" stroke="#ddd6fe" points="1869,-69.5 1869,-106.5 2062,-106.5 2062,-69.5 1869,-69.5"/>
<text text-anchor="start" x="1889.5" y="-85.5" font-family="DejaVu Sans" font-weight="bold" font-size="15.00" fill="white">Pick&#45;Place Motion</text>
<polygon fill="white" stroke="transparent" points="1869,-15.5 1869,-69.5 2062,-69.5 2062,-15.5 1869,-15.5"/>
<polygon fill="none" stroke="#ddd6fe" points="1869,-15.5 1869,-69.5 2062,-69.5 2062,-15.5 1869,-15.5"/>
<text text-anchor="start" x="1879" y="-47.5" font-family="DejaVu Sans" font-size="15.00">MoveIt/OMPL approach</text>
<text text-anchor="start" x="1901.5" y="-30.5" font-family="DejaVu Sans" font-size="15.00">Pilz LIN final pick</text>
</g>
<!-- harv_scene&#45;&gt;harv_motion -->
<g id="edge20" class="edge">
<title>harv_scene&#45;&gt;harv_motion</title>
<path fill="none" stroke="#7c3aed" stroke-width="2" d="M1728.25,-61.5C1769.1,-61.5 1818.06,-61.5 1860.83,-61.5"/>
<polygon fill="#7c3aed" stroke="#7c3aed" stroke-width="2" points="1860.97,-64.13 1868.47,-61.5 1860.97,-58.88 1860.97,-64.13"/>
<text text-anchor="middle" x="1798.25" y="-68.1" font-family="DejaVu Sans" font-size="13.00">planning scene</text>
</g>
<!-- harv_target&#45;&gt;harv_motion -->
<g id="edge19" class="edge">
<title>harv_target&#45;&gt;harv_motion</title>
<path fill="none" stroke="#7c3aed" stroke-width="2.4" d="M1465.66,-107.15C1497.25,-139.43 1534,-177 1534,-177 1534,-177 1748,-177 1748,-177 1748,-177 1813.44,-142.17 1872.45,-110.76"/>
<polygon fill="#7c3aed" stroke="#7c3aed" stroke-width="2.4" points="1873.85,-112.99 1879.24,-107.15 1871.38,-108.36 1873.85,-112.99"/>
<text text-anchor="middle" x="1607" y="-202.6" font-family="DejaVu Sans" font-size="13.00">selected target</text>
</g>
<!-- harv_motion&#45;&gt;sim_gazebo -->
<g id="edge22" class="edge">
<title>harv_motion&#45;&gt;sim_gazebo</title>
<path fill="none" stroke="#334155" stroke-width="2" d="M2013.98,-107.29C2067.59,-156.3 2146,-228 2146,-228 2146,-228 2146,-411 2146,-411 2146,-411 1801.22,-585.65 1629.65,-672.56"/>
<polygon fill="#334155" stroke="#334155" stroke-width="2" points="1628.37,-670.26 1622.87,-675.99 1630.74,-674.94 1628.37,-670.26"/>
<text text-anchor="middle" x="2234.5" y="-422.6" font-family="DejaVu Sans" font-size="13.00">attach / detach / basket release</text>
</g>
<!-- harv_motion&#45;&gt;ros_control -->
<g id="edge21" class="edge">
<title>harv_motion&#45;&gt;ros_control</title>
<path fill="none" stroke="#334155" stroke-width="2.4" d="M1957.02,-107.35C1940.28,-201.47 1903,-411 1903,-411 1903,-411 1582.05,-460.36 1416.83,-485.76"/>
<polygon fill="#334155" stroke="#334155" stroke-width="2.4" points="1416.09,-483.22 1409.08,-486.96 1416.89,-488.41 1416.09,-483.22"/>
<text text-anchor="middle" x="2035.5" y="-278.1" font-family="DejaVu Sans" font-size="13.00">arm, gripper, base commands</text>
</g>
</g>
</svg>
